<?xml version="1.0" standalone="no"?>
<!DOCTYPE svg PUBLIC "-//W3C//DTD SVG 20010904//EN"
 "http://www.w3.org/TR/2001/REC-SVG-20010904/DTD/svg10.dtd">
<svg version="1.0" xmlns="http://www.w3.org/2000/svg"
 width="1254.000000pt" height="1254.000000pt" viewBox="0 0 1254.000000 1254.000000"
 preserveAspectRatio="xMidYMid meet">
<metadata>
Created by potrace 1.16, written by Peter Selinger 2001-2019
</metadata>
<g transform="translate(0.000000,1254.000000) scale(0.100000,-0.100000)"
fill="currentColor" stroke="none">
<path d="M5327 11960 c-124 -14 -192 -36 -347 -109 -179 -85 -255 -113 -390
-140 -58 -12 -130 -28 -160 -36 -30 -8 -119 -22 -198 -30 -220 -23 -253 -46
-324 -222 -34 -84 -48 -106 -117 -178 -60 -64 -85 -99 -106 -152 -40 -97 -44
-100 -107 -86 -253 56 -297 63 -375 63 -149 0 -251 -39 -383 -145 -36 -29
-119 -80 -185 -115 -140 -73 -196 -122 -236 -205 -26 -53 -29 -71 -29 -152 0
-75 -4 -99 -20 -125 -11 -18 -20 -43 -20 -55 0 -17 -6 -23 -24 -23 -13 0 -55
-16 -94 -35 -82 -41 -144 -105 -200 -204 -20 -36 -44 -78 -52 -93 -8 -14 -43
-67 -76 -116 -118 -172 -155 -324 -134 -542 6 -65 8 -151 4 -192 l-6 -73 -117
-38 c-64 -21 -166 -46 -227 -56 -257 -44 -382 -98 -500 -215 -106 -106 -154
-236 -154 -418 0 -57 -5 -102 -15 -126 -9 -20 -58 -80 -109 -132 -102 -104
-131 -145 -175 -247 -90 -208 -151 -505 -151 -737 0 -151 19 -264 65 -393 20
-54 49 -156 65 -228 65 -288 97 -350 285 -545 111 -116 158 -185 204 -302 36
-91 74 -141 158 -212 43 -37 96 -92 119 -122 l41 -56 -23 -57 c-32 -81 -38
-138 -24 -250 11 -94 11 -106 -15 -238 -47 -235 -37 -310 66 -513 58 -113 118
-279 160 -439 53 -206 129 -329 242 -396 26 -15 98 -44 160 -65 192 -64 219
-86 243 -201 11 -53 23 -84 45 -109 126 -147 152 -238 143 -488 -5 -126 -3
-157 14 -214 26 -92 72 -164 172 -272 47 -50 105 -113 128 -141 60 -70 156
-150 228 -191 144 -81 262 -98 488 -69 141 18 193 17 344 -6 74 -12 90 -11
145 4 182 52 304 59 446 28 64 -14 90 -25 103 -42 10 -13 36 -44 56 -69 21
-25 77 -105 125 -177 128 -194 157 -219 378 -327 77 -38 168 -92 214 -127 114
-87 276 -164 389 -184 192 -33 421 -8 555 60 36 19 107 61 156 94 78 53 96 61
136 61 l46 0 63 -96 c71 -109 107 -133 196 -134 95 0 174 33 276 115 51 41
113 82 138 91 32 12 97 19 220 24 156 6 187 10 282 39 219 65 426 185 597 346
l67 64 31 -18 c59 -36 189 -89 278 -112 85 -23 105 -24 360 -22 335 1 403 12
570 88 84 39 132 56 250 90 232 69 409 185 514 339 19 27 62 115 96 196 34 81
74 169 89 195 34 58 94 125 111 125 7 0 44 -18 83 -41 39 -22 88 -43 109 -45
82 -10 154 62 219 220 86 210 175 302 376 390 156 68 242 186 260 355 13 132
34 181 138 321 160 218 196 416 131 735 -80 398 -93 434 -216 587 -46 58 -94
112 -107 120 -14 9 -58 49 -99 90 -41 40 -92 88 -114 106 l-40 32 30 21 c17
12 79 72 138 133 79 81 123 137 164 206 30 52 76 129 101 170 125 208 140 248
151 406 10 160 40 207 159 249 164 58 192 91 239 275 39 154 20 251 -83 412
-56 89 -73 142 -60 191 3 13 26 54 52 91 25 37 53 88 61 113 21 61 12 156 -21
221 -91 180 -134 340 -161 602 -21 204 -39 277 -84 348 -68 104 -177 178 -375
256 -99 39 -179 92 -300 199 -235 208 -386 262 -615 220 l-34 -6 7 39 c40 228
21 458 -58 684 -25 72 -107 232 -156 305 -53 79 -99 172 -131 260 -65 186
-143 306 -249 386 -87 66 -137 89 -218 101 -99 16 -243 54 -297 79 -56 26 -89
73 -104 148 -22 105 -64 145 -156 147 -33 1 -65 2 -71 3 -22 2 -65 56 -95 117
-61 129 -183 188 -447 219 -100 11 -163 25 -260 57 -120 40 -133 43 -242 43
-109 0 -121 -3 -240 -43 -157 -53 -301 -123 -418 -202 -105 -71 -98 -71 -215
2 -90 56 -199 95 -312 110 -82 11 -86 11 -287 -33 -54 -12 -58 -12 -90 12 -33
25 -114 73 -283 166 -277 154 -678 244 -948 213z m258 -20 c262 -25 488 -103
795 -273 153 -85 194 -113 182 -121 -10 -6 -127 -17 -393 -36 -166 -12 -305
-41 -479 -99 -321 -108 -472 -217 -644 -470 -20 -30 -57 -77 -82 -105 -25 -28
-57 -70 -71 -92 -41 -64 -157 -114 -265 -114 -53 0 -63 4 -125 49 -38 27 -90
57 -117 67 -27 10 -99 53 -160 96 -206 145 -326 189 -469 171 -45 -5 -83 -9
-84 -9 -1 1 10 33 25 71 21 54 44 87 106 154 76 83 100 122 141 235 37 101
112 146 270 160 67 7 97 12 335 58 138 26 276 71 375 121 216 108 317 137 510
145 22 1 90 -3 150 -8z m2775 -268 c88 -28 165 -45 259 -57 74 -9 159 -23 190
-31 122 -32 218 -109 273 -221 37 -76 68 -95 136 -86 83 11 131 -31 156 -134
17 -75 27 -93 70 -131 42 -36 154 -74 271 -92 102 -15 156 -33 227 -77 113
-68 210 -191 269 -340 60 -154 105 -248 163 -342 87 -143 101 -169 139 -262
42 -100 72 -232 88 -387 17 -164 5 -240 -80 -526 -11 -38 -30 -119 -41 -181
-37 -207 -116 -406 -218 -548 l-49 -67 5 74 c2 41 2 85 -1 98 -4 13 -31 57
-62 98 -37 49 -62 96 -76 139 -39 126 -81 175 -264 306 -73 53 -172 141 -297
264 -103 101 -209 199 -235 218 -27 19 -98 52 -159 75 -96 36 -121 42 -215 46
-118 5 -171 -6 -280 -58 l-63 -30 -29 63 c-16 34 -42 95 -58 135 -77 193 -131
261 -273 346 -101 60 -215 146 -230 174 -5 9 -25 35 -45 57 -20 22 -54 67 -76
100 -21 33 -75 96 -120 140 -191 188 -393 276 -605 262 -128 -9 -272 -44 -390
-97 -58 -26 -131 -57 -162 -70 -32 -13 -56 -25 -55 -27 5 -4 159 50 259 91
157 66 225 80 393 80 l150 1 90 -43 c193 -93 311 -194 457 -392 102 -138 157
-189 279 -260 52 -30 119 -80 156 -116 56 -55 72 -81 137 -216 86 -178 97
-209 131 -360 14 -62 41 -162 60 -223 41 -130 51 -185 60 -320 4 -55 23 -179
42 -275 32 -156 36 -192 36 -330 1 -181 -16 -290 -72 -472 -21 -68 -70 -226
-109 -353 -39 -126 -79 -250 -90 -275 -35 -82 -71 -204 -81 -277 -14 -89 -48
-170 -100 -231 -21 -26 -50 -69 -64 -97 -14 -27 -27 -45 -27 -40 -1 6 -5 60
-10 120 -4 61 -16 184 -25 275 -12 113 -15 203 -11 285 8 181 10 186 81 263
144 157 201 250 255 417 27 84 31 111 28 171 -6 85 -42 160 -100 206 -41 32
-64 71 -98 162 -23 60 -95 136 -130 136 -12 0 -39 9 -61 21 -80 40 -146 35
-301 -26 -12 -5 -18 -2 -18 7 0 7 -25 56 -56 108 -31 52 -69 122 -85 155 -32
70 -84 123 -189 192 -41 28 -103 75 -137 106 -34 30 -78 60 -97 67 -23 7 -72
48 -139 114 -85 86 -112 106 -162 125 -33 12 -109 50 -170 85 -137 79 -151 83
-255 90 -47 3 -112 14 -146 25 -67 22 -316 61 -386 61 -115 0 -231 -41 -313
-110 -106 -88 -157 -118 -305 -178 -141 -56 -203 -91 -303 -168 l-48 -37 7 29
c27 119 112 256 248 403 53 57 133 158 179 224 92 136 238 291 332 354 33 23
126 75 205 118 80 43 165 92 190 110 25 18 104 70 175 115 130 82 139 102 13
30 l-67 -38 -89 34 c-49 18 -140 66 -203 106 -70 44 -146 83 -198 101 -77 27
-104 30 -280 38 -108 5 -257 18 -331 29 -159 23 -196 24 -272 6 -32 -7 -58
-11 -58 -7 0 3 25 35 55 71 30 36 80 103 111 150 31 47 100 128 153 181 146
145 288 220 585 305 156 45 261 61 491 74 192 11 270 23 405 62 118 34 249 31
366 -9 92 -32 111 -41 219 -107 75 -46 88 -44 195 29 140 95 324 181 475 221
134 36 241 30 405 -24z m-4902 -658 c137 -31 165 -35 222 -28 128 16 230 10
290 -16 76 -33 163 -84 240 -140 36 -26 106 -68 155 -93 50 -25 109 -59 133
-75 41 -28 42 -30 20 -36 -13 -3 -34 -6 -48 -6 -55 -1 -106 -36 -145 -99 -37
-60 -70 -86 -205 -169 -66 -39 -128 -135 -166 -252 -18 -56 -65 -138 -102
-176 -11 -12 -73 -56 -136 -99 -179 -119 -233 -190 -336 -440 -32 -77 -80
-187 -108 -245 -113 -240 -136 -409 -92 -700 14 -96 18 -157 13 -229 l-6 -99
-58 -16 c-50 -14 -70 -27 -141 -97 -46 -44 -112 -100 -148 -123 -124 -81 -197
-187 -226 -329 -14 -65 -60 -199 -104 -303 -31 -71 -52 -201 -44 -273 5 -46 4
-62 -5 -57 -12 8 -122 138 -219 260 -88 111 -130 186 -234 423 -162 371 -183
455 -218 883 -23 275 -33 874 -18 1000 13 103 56 205 142 335 40 60 90 142
111 180 50 90 123 163 204 203 79 39 137 41 234 8 37 -12 67 -20 67 -16 0 10
-40 28 -105 46 -33 9 -64 20 -68 24 -12 11 1 47 25 70 19 18 20 23 9 76 -15
78 -14 95 11 161 32 88 116 166 243 227 55 26 141 79 190 116 148 112 219 138
373 139 74 1 128 -7 250 -35z m1762 -309 c47 -8 175 -19 285 -25 138 -6 224
-16 276 -29 89 -23 211 -82 288 -140 29 -22 77 -48 105 -57 27 -9 70 -26 94
-36 l43 -19 -88 -62 c-48 -33 -155 -96 -236 -138 -251 -132 -336 -208 -519
-464 -59 -83 -152 -199 -208 -259 -118 -128 -170 -209 -211 -337 -30 -90 -35
-98 -107 -170 -89 -87 -90 -89 -130 -229 -23 -78 -130 -421 -137 -437 0 -1
-19 4 -40 12 -51 18 -176 19 -218 1 -18 -7 -47 -30 -66 -51 -18 -21 -58 -58
-87 -82 -80 -66 -98 -106 -100 -228 -1 -67 -9 -128 -24 -185 -32 -122 -25
-181 33 -291 35 -68 47 -100 52 -155 14 -140 53 -239 127 -321 17 -18 19 -26
9 -55 -18 -55 2 -368 29 -443 19 -53 23 -94 31 -334 10 -304 20 -428 50 -604
16 -97 61 -269 95 -362 8 -23 -17 -3 -124 100 -60 57 -70 75 -216 370 -85 171
-164 333 -176 360 -86 193 -239 512 -273 570 -22 39 -107 182 -190 318 -231
385 -250 433 -332 835 l-46 224 3 191 c2 153 -1 213 -16 296 -14 82 -17 135
-13 245 5 166 27 250 106 417 27 58 68 151 90 207 108 271 171 355 356 476
135 89 172 129 214 232 82 202 144 285 251 339 32 15 79 53 111 87 l56 59 23
-53 c22 -51 70 -130 70 -115 0 4 -15 40 -33 79 -52 113 -53 124 -15 144 21 11
74 20 153 25 166 11 189 16 277 55 125 56 222 66 378 39z m958 -1180 c56 -8
155 -28 219 -45 70 -18 143 -30 181 -30 59 0 71 -5 250 -96 103 -53 205 -110
228 -126 40 -29 120 -116 112 -123 -2 -2 -21 0 -43 5 -62 15 -127 12 -293 -12
l-153 -21 -142 23 c-160 26 -342 30 -428 10 -30 -7 -81 -26 -114 -43 -56 -28
-197 -145 -255 -211 -32 -37 -158 -206 -162 -216 -2 -5 -46 -16 -98 -25 -126
-21 -118 -18 -180 -75 -30 -28 -91 -75 -135 -104 -113 -76 -157 -134 -195
-259 -26 -86 -29 -112 -34 -277 -4 -118 -10 -161 -30 -229 -43 -141 -35 -178
64 -286 64 -71 100 -130 100 -164 0 -27 70 -161 117 -223 67 -88 227 -193 380
-248 104 -37 90 -17 -19 28 -122 50 -242 125 -306 190 -52 52 -114 152 -138
222 -30 87 -66 149 -129 218 -83 92 -89 124 -52 261 21 77 27 126 31 251 4
132 9 168 32 240 34 109 89 189 167 245 63 45 171 126 210 157 22 17 221 57
232 46 3 -3 -8 -34 -24 -68 -17 -35 -35 -89 -41 -119 -7 -31 -24 -96 -40 -146
-53 -167 -112 -409 -113 -459 -1 -28 7 -143 17 -256 19 -214 17 -339 -8 -440
l-13 -55 -73 75 c-40 41 -93 105 -117 143 -25 37 -49 67 -54 67 -5 0 -10 12
-10 28 l-2 27 -4 -27 c-4 -28 -3 -30 104 -177 92 -126 237 -222 545 -360 95
-43 211 -97 258 -121 221 -110 475 -321 627 -520 36 -47 70 -90 75 -97 7 -8
-2 -18 -29 -31 l-38 -19 -47 52 c-26 28 -73 89 -104 136 -129 188 -273 290
-594 419 -103 42 -182 64 -201 58 -7 -2 57 -28 142 -57 291 -99 516 -249 624
-414 29 -45 76 -108 104 -140 28 -32 51 -62 51 -67 0 -13 -139 -96 -242 -145
-51 -24 -167 -73 -257 -110 -90 -36 -190 -81 -222 -100 l-58 -33 -118 80
c-151 103 -180 126 -278 218 -96 89 -199 174 -315 257 -124 89 -142 112 -185
233 -21 58 -53 144 -71 192 -47 123 -110 353 -133 488 -11 64 -34 160 -51 215
-17 54 -35 131 -41 169 -12 76 -6 278 11 356 6 25 14 140 19 255 8 183 12 219
34 280 14 39 48 144 76 235 65 208 98 275 164 336 29 25 73 66 98 89 101 91
246 173 389 220 103 33 135 51 223 127 151 129 266 157 505 123z m2875 -56
c154 -39 241 -100 462 -324 143 -145 250 -235 404 -340 63 -43 104 -103 135
-195 27 -81 45 -114 108 -199 31 -40 33 -48 33 -125 0 -79 -2 -85 -37 -139
-23 -34 -47 -58 -60 -61 -87 -18 -125 -28 -138 -37 -15 -10 -6 -9 50 7 11 3
20 2 19 -3 0 -7 -177 -101 -212 -112 -25 -9 13 27 44 39 16 7 28 15 25 17 -12
12 -78 -30 -101 -66 -43 -64 -39 -118 14 -230 57 -120 60 -159 26 -302 -30
-126 -47 -165 -111 -256 -70 -98 -89 -146 -143 -350 -100 -378 -172 -500 -393
-669 -102 -78 -136 -115 -213 -234 -27 -41 -88 -113 -135 -160 -78 -79 -98
-92 -249 -170 -253 -130 -327 -156 -539 -186 -130 -18 -130 -18 -215 -60 -38
-19 -96 -42 -130 -51 -81 -21 -247 -20 -362 1 -105 19 -175 30 -302 47 -51 6
-93 15 -93 18 0 3 57 19 127 34 70 16 149 40 175 53 26 13 52 24 57 24 6 0 41
20 78 43 121 78 264 153 428 226 356 157 549 279 629 395 49 73 122 224 151
313 14 42 23 78 21 80 -2 2 -15 -28 -30 -68 -44 -118 -118 -257 -176 -329 -50
-63 -149 -147 -208 -179 -21 -11 -23 -11 -18 6 15 50 35 170 45 270 16 156 39
223 106 308 79 101 104 154 120 254 16 98 42 186 90 311 18 47 47 137 64 200
43 156 98 334 121 395 49 128 86 385 77 535 -4 52 -20 160 -36 240 -17 80 -35
192 -41 250 -22 213 -30 258 -69 383 -22 70 -47 165 -56 210 -9 45 -19 90 -21
100 -5 14 11 25 78 56 98 46 105 48 226 50 66 1 118 -5 175 -20z m1882 -354
c95 -38 277 -164 340 -235 34 -38 136 -105 220 -142 201 -91 234 -108 291
-151 69 -50 100 -88 138 -162 31 -63 42 -110 56 -250 29 -284 67 -445 140
-596 77 -160 76 -244 -5 -358 -48 -70 -71 -142 -60 -199 3 -20 28 -71 55 -112
97 -149 122 -248 96 -376 -35 -166 -104 -261 -209 -284 -80 -18 -127 -48 -160
-102 -25 -40 -30 -61 -38 -160 -12 -147 -29 -203 -96 -318 -31 -52 -80 -137
-110 -189 -73 -129 -139 -215 -230 -302 -75 -72 -216 -176 -316 -233 -63 -36
-259 -111 -367 -141 -78 -22 -270 -56 -270 -49 0 10 92 89 130 111 67 40 146
109 171 151 27 45 94 132 170 225 147 177 194 362 154 612 -19 121 -16 176 15
288 27 97 26 210 -4 388 -14 79 -30 187 -36 239 -32 260 -110 456 -234 587
-41 44 -91 91 -111 104 -20 13 -68 68 -107 122 -101 142 -178 192 -342 222
-83 16 -125 15 -210 -1 l-28 -6 40 58 c22 33 63 97 92 144 29 47 93 142 142
211 130 186 204 363 247 589 11 58 35 155 54 215 l35 110 53 12 c87 20 212 10
294 -22z m-4382 -37 l118 -22 137 20 c186 26 306 25 400 -5 60 -19 85 -34 141
-85 37 -35 110 -90 162 -124 100 -66 131 -100 194 -217 106 -194 133 -257 145
-328 6 -39 22 -112 35 -162 64 -242 81 -448 47 -570 -29 -107 -71 -252 -97
-335 l-24 -75 2 140 c1 127 0 144 -21 182 -12 23 -22 56 -22 73 0 54 -27 99
-110 182 -44 44 -80 83 -80 87 0 5 -38 31 -84 59 -47 29 -87 60 -90 69 -3 10
-10 40 -16 67 -6 27 -22 72 -35 100 -13 28 -58 124 -99 212 -86 188 -133 261
-230 359 -71 71 -131 110 -411 267 -168 95 -193 95 -380 2 -66 -33 -140 -66
-165 -73 -121 -36 -238 -75 -265 -89 -54 -26 -131 -91 -164 -137 -18 -26 -35
-44 -38 -41 -7 7 127 183 177 233 127 128 180 172 237 193 143 54 310 60 536
18z m7 -95 c41 -21 142 -77 224 -123 129 -73 158 -95 226 -167 91 -96 146
-175 201 -293 23 -47 61 -125 85 -175 46 -93 80 -206 109 -360 30 -157 35
-188 45 -270 5 -44 16 -127 25 -184 9 -57 15 -111 13 -119 -2 -8 -27 32 -55
90 -47 92 -53 112 -53 166 0 70 -17 85 -22 20 l-3 -43 -54 105 c-54 103 -54
106 -52 183 4 120 -28 217 -71 217 -6 0 -1 -8 10 -17 24 -22 42 -93 42 -169 0
-113 -104 -355 -192 -447 l-30 -32 18 30 c69 114 86 148 109 210 34 91 32 116
-30 390 -9 39 -20 88 -25 110 -6 31 -22 52 -72 98 -75 68 -125 96 -256 141
-118 41 -180 49 -280 34 -43 -6 -144 -12 -227 -13 -195 -3 -310 -27 -362 -77
-37 -35 -153 -204 -153 -223 0 -6 -20 -33 -45 -60 -71 -79 -155 -265 -155
-344 0 -82 31 -141 136 -258 97 -109 241 -199 414 -261 47 -17 101 -37 120
-45 69 -30 287 -84 360 -90 29 -2 32 -4 16 -12 -27 -12 -174 10 -271 41 -87
28 -305 111 -400 152 -190 83 -309 203 -414 417 -73 147 -101 170 -35 28 44
-95 46 -100 40 -168 -4 -39 -22 -136 -41 -215 -19 -80 -35 -158 -35 -174 0
-23 -3 -27 -12 -18 -9 9 -9 27 2 79 18 84 17 354 -2 521 -7 64 -12 140 -11
167 2 56 3 60 83 345 32 113 63 229 69 258 6 29 33 97 61 151 50 99 88 143
167 195 40 26 271 109 334 120 21 4 48 15 61 25 26 21 143 76 203 97 55 19 98
11 185 -33z m-4810 -145 c0 -128 28 -497 51 -663 25 -186 76 -338 235 -690 92
-203 190 -345 366 -530 72 -76 78 -85 101 -166 33 -116 55 -155 122 -220 61
-59 116 -91 232 -134 91 -33 118 -54 135 -107 12 -36 13 -55 2 -113 -7 -38
-13 -94 -13 -123 -1 -46 -3 -53 -18 -48 -63 20 -144 28 -334 33 -179 5 -235 3
-320 -12 -245 -41 -440 -141 -653 -336 -72 -66 -216 -240 -243 -293 -8 -17
-28 -44 -43 -61 -16 -16 -48 -62 -72 -100 -24 -39 -46 -73 -50 -75 -4 -3 -22
16 -40 41 -18 26 -56 64 -83 86 -106 83 -167 167 -206 282 -31 88 -66 140
-179 256 -130 134 -157 170 -204 262 -38 77 -66 169 -91 300 -8 44 -34 134
-56 198 -54 157 -69 242 -69 396 0 255 68 563 171 777 32 67 59 103 136 182
137 141 139 147 146 310 4 107 9 147 27 195 42 110 92 176 192 250 99 74 226
115 548 176 30 6 87 22 125 35 39 13 73 24 78 24 4 0 7 -60 7 -132z m6423
-414 c118 -51 147 -83 188 -203 15 -42 33 -69 73 -106 39 -37 59 -65 75 -108
27 -75 27 -123 -5 -232 -45 -159 -105 -258 -259 -430 -135 -151 -194 -225
-220 -273 -40 -78 -59 -101 -127 -152 -47 -36 -72 -62 -88 -97 -39 -83 -75
-117 -247 -237 -175 -121 -194 -137 -358 -306 -143 -146 -209 -195 -420 -304
-128 -67 -160 -91 -280 -206 -132 -128 -176 -165 -215 -185 -19 -10 -30 -20
-23 -22 26 -9 95 41 204 147 149 145 188 174 348 259 218 116 278 164 498 393
50 52 111 108 135 124 145 98 275 192 302 219 17 17 49 61 70 98 27 47 58 82
102 117 39 30 72 67 85 93 24 46 108 164 136 189 17 16 18 9 19 -180 0 -127 6
-241 17 -322 36 -265 32 -513 -13 -690 -36 -145 -25 -136 -304 -255 -213 -91
-265 -116 -458 -228 -81 -46 -176 -96 -211 -110 -90 -36 -328 -81 -386 -72
-218 31 -532 96 -606 125 -26 10 -28 13 -13 21 9 5 27 23 38 40 l22 30 -48
-31 c-26 -16 -54 -30 -61 -30 -24 0 -129 49 -197 91 -36 23 -66 42 -66 43 0
15 113 74 220 116 151 60 398 184 565 283 61 37 141 83 178 104 267 148 479
316 666 527 222 252 281 351 345 586 21 74 54 185 74 245 33 100 37 122 40
242 4 140 -11 238 -63 418 -13 44 -26 107 -30 139 -4 33 -11 70 -15 82 -8 20
-3 24 53 47 84 35 86 35 135 36 30 1 70 -11 125 -35z m-1549 -64 c89 -13 267
-83 325 -129 49 -39 98 -94 104 -118 10 -36 56 -240 71 -316 20 -98 20 -132
-2 -181 l-18 -39 -83 127 c-46 70 -87 139 -91 154 -5 15 -16 54 -25 87 -36
127 -85 198 -190 274 -64 47 -203 111 -255 118 -22 3 -40 9 -40 14 0 7 22 10
107 17 12 1 55 -3 97 -8z m-179 -35 c92 -22 241 -103 315 -172 100 -92 152
-228 132 -343 -15 -82 -56 -187 -88 -225 l-26 -30 25 50 c43 84 57 126 68 202
9 64 8 78 -9 117 -11 24 -25 47 -32 51 -8 5 -7 -2 3 -21 17 -35 31 -134 19
-134 -5 0 -21 22 -35 49 -15 27 -44 69 -64 95 -49 59 -176 153 -225 167 -51
13 -48 21 5 14 106 -15 179 -49 261 -124 17 -15 27 -20 24 -11 -7 25 -123 107
-185 130 -90 35 -275 47 -378 26 -248 -51 -383 -206 -399 -454 -6 -93 9 -62
23 47 14 113 48 185 124 262 80 82 229 138 365 139 61 0 68 -13 15 -31 -21 -7
-67 -30 -103 -52 -36 -22 -80 -46 -99 -54 -52 -22 -145 -88 -176 -125 -46 -54
-96 -170 -105 -243 -5 -37 -11 -69 -13 -72 -7 -7 -45 70 -62 127 -16 49 -8
133 20 224 17 56 19 69 6 62 -4 -3 -18 -37 -30 -77 -18 -56 -22 -88 -19 -152
4 -78 8 -90 76 -230 39 -81 86 -169 103 -195 25 -36 27 -42 10 -27 -62 54
-176 256 -223 394 -48 142 -57 224 -33 307 21 74 95 192 155 248 46 43 94 60
225 80 59 9 261 -3 330 -19z m-1816 -31 l46 -17 -6 -176 c-4 -97 -15 -228 -24
-291 -24 -162 -17 -302 24 -440 17 -58 45 -175 62 -260 41 -203 109 -442 159
-555 12 -27 33 -81 46 -118 l23 -68 -41 36 c-45 38 -146 173 -183 245 -26 50
-151 183 -235 250 -176 140 -240 244 -254 415 -7 79 -20 116 -72 203 -38 64
-43 145 -13 247 17 59 23 107 23 185 1 97 3 109 29 153 18 29 52 63 88 88 32
23 61 50 64 59 6 20 40 45 70 53 45 11 150 6 194 -9z m1926 -194 c22 -11 75
-50 118 -87 64 -56 85 -81 112 -138 18 -38 34 -81 33 -95 0 -14 4 -38 7 -53 5
-19 2 -41 -10 -68 -21 -46 -30 -49 -39 -13 -4 14 -22 39 -41 56 -28 24 -101
148 -88 148 10 0 51 -25 88 -54 37 -29 39 -29 24 -6 -24 39 -102 86 -181 110
-70 22 -74 22 -146 7 -109 -24 -230 -86 -267 -138 l-30 -41 -5 39 c-5 35 -6
36 -13 13 -8 -29 -9 -94 -2 -102 5 -5 85 67 85 77 0 3 -4 3 -10 0 -25 -16 -6
13 26 39 37 30 202 101 212 92 8 -8 3 -11 -48 -29 l-45 -17 66 6 c61 6 67 4
100 -23 19 -15 36 -32 38 -36 2 -5 16 -20 31 -34 22 -20 27 -30 21 -51 -4 -14
-12 -27 -18 -29 -14 -5 -36 33 -28 46 10 17 -67 79 -106 85 -35 6 -113 -4
-153 -20 -14 -5 -17 -4 -11 5 6 10 3 11 -13 2 -36 -19 -62 -74 -62 -129 0 -45
-2 -50 -20 -45 -21 6 -26 22 -11 39 4 5 11 23 15 39 l6 30 -35 -37 -35 -37
-15 29 c-21 40 -20 152 2 193 43 83 138 168 260 233 40 20 57 24 98 19 28 -3
68 -15 90 -25z m3548 -82 c-37 -57 -106 -154 -154 -217 -49 -62 -90 -118 -92
-125 -6 -14 -30 16 -57 70 -26 52 -27 135 -2 156 9 9 85 50 169 92 89 44 159
86 170 100 10 14 21 26 25 26 4 0 -22 -46 -59 -102z m-6909 -15 c7 -87 78
-439 118 -583 32 -115 81 -212 260 -511 201 -334 247 -420 381 -709 58 -124
157 -332 221 -464 64 -131 115 -240 112 -243 -5 -5 -93 117 -133 185 -14 23
-27 42 -30 42 -3 0 8 -21 23 -47 121 -207 239 -353 400 -489 230 -197 468
-406 556 -490 132 -125 269 -240 413 -348 72 -54 195 -148 274 -209 79 -62
165 -127 190 -146 25 -19 66 -51 89 -72 83 -72 247 -149 318 -149 21 0 33 -4
29 -10 -8 -13 -172 -13 -227 0 -169 40 -222 54 -288 80 -41 15 -111 33 -155
39 -250 35 -366 74 -605 201 -85 46 -216 115 -290 155 -74 39 -155 85 -180
101 -25 17 -79 49 -120 73 -150 84 -457 330 -627 503 -127 128 -223 251 -323
415 -90 148 -174 268 -224 321 -30 33 -112 82 -138 82 -7 1 -26 6 -42 13 -25
11 -19 12 55 11 52 -1 99 -8 123 -18 57 -24 58 -10 2 15 -32 14 -81 23 -149
28 -131 9 -154 21 -192 95 -29 57 -30 64 -30 190 0 72 4 158 9 192 12 86 -8
126 -83 163 -31 16 -68 31 -82 34 -43 11 -172 86 -212 125 -77 74 -135 222
-152 392 -9 86 19 212 78 356 25 60 55 152 67 204 38 166 93 248 227 336 49
31 117 87 153 124 51 53 76 71 115 83 28 9 53 16 56 16 3 1 9 -38 13 -86z
m2514 -90 c0 -49 5 -102 10 -119 12 -38 -9 -184 -31 -218 -8 -12 -13 -33 -10
-47 2 -14 -1 -40 -9 -58 l-13 -33 -35 49 c-54 75 -60 89 -66 156 -5 57 -1 71
39 169 24 58 59 124 78 147 19 22 34 41 35 41 0 0 1 -39 2 -87z m430 38 c-18
-22 -40 -54 -50 -73 -40 -80 -67 -150 -62 -161 2 -7 -21 -37 -52 -67 -56 -55
-56 -55 -49 -23 3 18 8 52 9 76 3 57 63 164 119 212 34 30 100 73 115 75 2 0
-11 -18 -30 -39z m1347 -67 c33 -20 77 -54 98 -75 22 -21 43 -39 47 -39 10 0
82 -96 104 -139 10 -19 18 -50 18 -70 0 -20 9 -53 20 -74 21 -43 23 -63 16
-277 -5 -162 -9 -175 -78 -265 -25 -33 -57 -78 -70 -100 -29 -47 -269 -305
-334 -358 l-45 -37 39 83 c22 46 67 162 100 259 97 281 121 425 100 583 -7 50
-16 131 -20 180 -4 50 -21 152 -37 228 -16 75 -26 137 -23 137 3 0 32 -16 65
-36z m-922 0 c35 -11 18 -27 -20 -19 -21 4 -49 8 -63 10 -36 4 -37 4 -20 15
14 10 59 7 103 -6z m-20 -32 c19 -3 37 -18 54 -43 14 -22 24 -41 21 -44 -2 -2
-25 12 -51 33 -25 20 -57 45 -69 55 -20 16 -20 17 -3 11 11 -4 33 -9 48 -12z
m117 -72 c10 -38 1 -92 -21 -128 -18 -29 -31 -29 -20 1 5 12 12 46 16 75 6 47
4 57 -18 91 -14 22 -23 42 -19 46 10 10 51 -46 62 -85z m305 -20 c25 -39 45
-74 45 -78 0 -4 16 -27 35 -51 81 -102 66 -121 -180 -218 -49 -20 -123 -51
-164 -70 -41 -18 -76 -32 -78 -30 -2 3 18 28 44 57 27 29 62 73 78 97 17 23
46 67 66 95 41 60 85 165 95 226 4 23 8 42 10 42 2 0 23 -32 49 -70z m3266 26
c74 -16 169 -60 218 -102 18 -15 58 -63 88 -106 31 -44 91 -111 137 -150 166
-147 247 -292 295 -531 10 -51 22 -121 25 -157 4 -36 18 -131 32 -211 25 -155
30 -288 13 -354 -41 -155 -43 -181 -25 -303 26 -185 21 -268 -25 -407 -26 -78
-59 -133 -127 -213 -31 -36 -75 -95 -98 -131 -72 -109 -154 -197 -215 -230
-30 -17 -77 -49 -103 -72 -26 -23 -49 -39 -51 -37 -3 2 0 20 5 39 26 88 54
282 54 369 -1 168 -60 313 -174 429 -79 81 -152 119 -305 158 -103 26 -123 28
-310 28 -222 0 -273 -8 -468 -71 -154 -50 -321 -122 -611 -262 -5 -3 3 17 18
44 19 36 40 57 77 77 84 48 197 145 242 207 23 33 65 92 92 131 34 49 89 105
170 174 152 129 208 191 265 290 50 88 112 264 141 400 33 151 57 211 133 324
64 95 76 121 106 227 28 95 34 137 35 211 l0 91 46 64 46 65 69 10 c99 15 131
14 205 -1z m-3726 -26 c48 -45 23 -64 -30 -22 -40 31 -68 36 -133 23 -59 -12
-97 -38 -115 -81 l-11 -25 -4 24 c-3 17 5 33 26 54 59 59 216 75 267 27z
m-412 -101 c8 -20 44 -69 81 -109 36 -41 66 -79 66 -86 0 -8 -23 -13 -72 -16
-62 -3 -82 1 -135 25 -35 15 -63 32 -63 37 0 6 18 52 40 104 22 51 40 103 40
114 0 11 3 29 7 39 5 13 9 6 14 -27 4 -25 13 -61 22 -81z m337 81 c8 0 26 -10
39 -21 19 -15 22 -22 12 -32 -8 -8 -14 -9 -19 -1 -8 11 -58 12 -69 0 -4 -4 -1
-11 6 -15 9 -6 10 -11 2 -15 -6 -4 -11 -2 -11 4 0 6 -4 8 -10 5 -5 -3 -7 -19
-3 -35 4 -24 2 -30 -12 -30 -13 0 -15 3 -6 13 16 21 0 29 -20 11 -16 -15 -17
-14 -12 6 3 12 23 35 44 52 22 17 37 33 35 35 -7 7 -100 -28 -119 -44 -9 -9
-20 -13 -24 -10 -8 8 -11 5 57 51 36 25 61 35 75 32 11 -3 27 -6 35 -6z m-145
-30 c-10 -11 -20 -18 -23 -15 -7 6 18 35 31 35 5 0 2 -9 -8 -20z m-440 -220
c65 -108 106 -162 175 -230 l65 -65 -48 -3 c-37 -2 -59 3 -100 25 -64 35 -247
171 -254 189 -2 7 2 37 10 66 8 29 20 87 27 128 21 135 18 133 53 40 18 -47
50 -114 72 -150z m935 111 c0 -18 -19 -46 -134 -195 -20 -27 -57 -65 -82 -83
-40 -31 -49 -34 -87 -28 -58 10 -283 83 -332 108 l-40 21 115 12 c123 13 179
29 275 76 106 53 163 110 181 184 l7 27 48 -51 c27 -28 49 -60 49 -71z m546
-56 c46 -88 99 -189 116 -224 63 -130 53 -201 -86 -596 -60 -168 -119 -284
-172 -339 -53 -55 -354 -252 -413 -271 -29 -9 -46 7 -131 120 -79 106 -157
187 -260 270 -75 61 -205 155 -213 155 -14 0 -178 98 -171 103 5 2 43 12 84
21 41 9 95 23 120 31 25 8 66 17 91 20 96 10 319 136 429 240 36 34 95 85 132
114 109 85 248 246 301 348 25 48 51 107 58 131 7 23 16 41 21 40 5 -2 47 -75
94 -163z m-792 120 c22 -33 20 -53 -6 -92 -29 -41 -94 -77 -183 -99 l-69 -17
-31 39 c-16 21 -47 56 -67 76 -21 21 -38 43 -38 50 1 8 7 5 18 -7 42 -48 110
-75 187 -75 46 0 68 5 82 18 10 9 12 13 4 7 -8 -5 -47 -10 -87 -10 -61 0 -77
4 -94 21 -17 16 -20 27 -14 50 l7 29 10 -28 c10 -31 27 -36 27 -8 0 21 17 37
28 26 3 -3 0 -10 -8 -16 -13 -8 -11 -13 9 -29 43 -36 146 -18 175 30 9 16 16
35 16 44 0 23 15 20 34 -9z m-78 -24 c-11 -18 -34 -1 -29 20 5 18 7 19 21 6 8
-8 11 -20 8 -26z m149 2 c-4 -21 -18 -47 -31 -60 -13 -12 -24 -20 -24 -18 0 8
54 115 58 115 2 0 1 -17 -3 -37z m-635 -72 c-24 -49 -30 -51 -30 -12 0 34 43
95 48 69 2 -9 -6 -35 -18 -57z m450 38 c0 -5 -7 -9 -15 -9 -15 0 -20 12 -9 23
8 8 24 -1 24 -14z m-380 -167 c111 -67 304 -143 402 -158 21 -4 38 -10 38 -14
0 -8 -135 -53 -210 -69 -25 -6 -72 -11 -105 -11 l-61 0 -35 48 c-20 26 -61 94
-93 152 -32 58 -62 109 -67 115 -25 26 -3 22 44 -9 28 -18 68 -43 87 -54z
m-443 -47 c67 -80 168 -160 257 -203 82 -40 352 -145 453 -176 45 -14 113 -29
153 -32 44 -4 69 -11 67 -18 -5 -16 -165 -96 -211 -106 -45 -9 -169 -40 -284
-71 l-73 -20 -167 76 c-92 41 -207 97 -257 124 -86 46 -90 50 -93 84 -4 41 8
109 37 212 11 39 23 93 26 120 17 136 14 125 25 100 4 -11 34 -51 67 -90z
m1124 67 c-5 -9 -19 -26 -32 -37 -26 -23 -17 -2 14 33 25 27 31 28 18 4z m320
-6 c-15 -17 -186 -89 -201 -84 -10 3 181 94 204 97 5 1 3 -5 -3 -13z m-31 -54
c0 -5 -14 -30 -31 -56 -31 -46 -91 -104 -261 -249 -86 -74 -87 -75 -135 -70
-114 10 -188 27 -348 81 l-170 57 105 7 c78 5 136 16 225 43 190 57 327 105
361 126 18 11 39 16 48 13 19 -7 92 11 151 38 45 20 55 22 55 10z m-416 -87
c-7 -18 -44 -40 -44 -27 0 5 10 17 23 25 28 20 28 20 21 2z m-2127 -411 c97
-74 215 -202 264 -285 82 -140 180 -246 374 -402 83 -66 197 -161 253 -211
151 -132 216 -185 312 -251 47 -33 108 -76 135 -97 54 -41 284 -161 375 -196
147 -57 417 -110 840 -166 107 -15 238 -35 290 -46 52 -11 116 -20 141 -20 96
0 347 -58 455 -106 148 -65 225 -112 337 -207 74 -63 76 -84 5 -53 -29 13 -76
40 -105 59 -64 43 -125 64 -221 76 -86 11 -154 3 -277 -34 -82 -24 -106 -27
-260 -27 -287 -1 -560 61 -755 172 -142 81 -179 97 -340 145 -247 75 -305 109
-450 266 -98 106 -122 124 -185 134 -140 22 -189 50 -233 133 -18 33 -40 63
-49 66 -9 4 -64 11 -122 17 -169 15 -242 27 -305 49 -72 25 -87 18 -22 -10 64
-29 182 -50 279 -50 45 -1 100 -7 122 -15 40 -14 48 -22 108 -105 42 -58 79
-78 170 -94 42 -7 88 -21 104 -31 15 -10 80 -70 143 -135 102 -104 124 -122
200 -158 47 -22 135 -54 195 -72 166 -47 210 -65 336 -135 133 -74 212 -106
351 -141 270 -68 607 -72 778 -8 63 23 197 23 285 0 73 -19 102 -33 195 -92
30 -19 68 -38 83 -41 56 -12 17 -35 -103 -61 l-45 -10 58 -1 c66 -1 132 26
142 59 8 26 -13 60 -60 96 -19 14 -35 30 -35 35 0 5 27 37 60 72 69 71 180
229 235 334 25 49 49 80 74 96 48 32 137 77 152 77 7 0 71 27 144 60 362 164
536 206 822 197 137 -4 186 -10 266 -30 213 -56 336 -160 407 -343 46 -121 56
-212 35 -347 -31 -207 -81 -390 -183 -672 -22 -61 -45 -146 -52 -190 -15 -108
-27 -141 -57 -165 -34 -26 -75 -25 -146 4 -68 27 -123 23 -164 -15 -34 -32
-73 -116 -73 -159 0 -53 -27 -196 -51 -270 -35 -108 -116 -261 -177 -335 -80
-96 -227 -224 -351 -306 -153 -100 -216 -109 -391 -54 -70 23 -98 27 -161 23
-133 -8 -200 -64 -312 -263 -76 -135 -91 -154 -165 -212 -59 -47 -113 -69
-262 -108 -58 -15 -116 -34 -130 -41 l-25 -14 30 6 c108 23 293 78 336 100 83
41 175 144 239 265 69 129 153 221 220 239 57 16 190 8 250 -15 25 -9 66 -21
93 -27 39 -9 47 -14 47 -33 0 -42 -28 -168 -68 -310 -22 -77 -52 -201 -67
-275 -45 -226 -93 -353 -173 -465 -66 -91 -643 -659 -687 -676 -5 -2 -44 -26
-85 -53 -77 -52 -274 -138 -370 -163 -31 -8 -137 -18 -240 -22 -171 -7 -189
-9 -244 -34 -32 -15 -85 -51 -117 -81 -32 -30 -83 -66 -114 -80 -62 -30 -161
-43 -215 -29 -36 9 -40 15 -89 125 -13 31 -34 56 -60 74 -36 23 -48 26 -105
22 -67 -4 -66 -4 -194 -98 -164 -120 -453 -165 -685 -106 -122 31 -185 62
-326 163 -120 85 -127 89 -301 172 -87 40 -119 62 -175 118 -39 38 -85 96
-104 128 -19 33 -70 109 -114 168 -44 59 -78 109 -76 112 2 2 63 -8 134 -21
254 -49 291 -54 380 -54 112 0 183 18 302 74 113 55 172 92 293 187 52 41 158
119 235 174 230 164 319 260 455 489 25 42 59 99 75 125 l30 49 76 -86 c123
-139 209 -182 485 -238 164 -34 194 -37 349 -37 232 -1 391 24 518 80 31 14
56 27 54 29 -2 2 -43 -10 -92 -26 -129 -45 -255 -62 -445 -64 -181 -1 -279 10
-469 55 -206 49 -280 94 -425 259 -101 115 -358 325 -463 379 -113 59 -229 55
-388 -13 -69 -29 -137 -33 -211 -11 -27 8 -93 21 -146 29 -108 16 -186 47
-251 99 -23 19 -91 58 -152 87 -174 85 -288 208 -349 380 -15 41 -40 95 -56
120 -98 153 -102 283 -14 449 19 35 34 68 34 74 0 19 -32 -18 -54 -62 -82
-164 -80 -309 7 -456 16 -27 49 -96 73 -153 48 -114 89 -176 161 -243 68 -63
133 -106 211 -138 37 -15 99 -51 138 -79 84 -62 128 -78 259 -98 55 -8 124
-22 154 -31 71 -20 142 -12 240 30 69 29 86 32 176 32 144 0 160 -9 427 -226
51 -42 103 -87 114 -100 l22 -24 -89 -154 c-49 -85 -107 -178 -130 -207 -71
-93 -200 -206 -369 -326 -91 -65 -190 -138 -220 -164 -118 -101 -294 -198
-415 -229 -126 -32 -323 -12 -690 72 -205 47 -355 52 -474 14 -102 -32 -162
-36 -260 -17 -105 20 -167 20 -311 0 -196 -27 -305 -14 -458 57 -66 31 -195
151 -373 347 -160 177 -171 207 -179 502 -9 292 -11 298 -152 473 -37 46 -31
92 25 173 27 38 60 85 75 104 24 32 24 33 3 15 -26 -22 -109 -129 -118 -151
-9 -23 -19 -16 -37 24 -23 49 -95 96 -199 128 -174 54 -266 111 -324 202 -46
71 -63 114 -107 267 -65 224 -77 255 -159 440 -77 172 -81 184 -85 267 -3 68
2 116 23 224 27 132 28 141 16 243 -15 125 -7 186 37 284 47 104 184 300 323
466 183 218 427 372 674 428 145 33 663 21 723 -16 7 -4 17 -34 23 -67 24
-129 82 -190 231 -240 53 -17 94 -39 120 -62 45 -41 172 -218 273 -381 137
-220 254 -355 470 -542 119 -102 310 -244 425 -315 l82 -51 -38 -20 c-97 -49
-130 -71 -176 -112 -27 -24 -56 -58 -65 -75 -12 -25 -2 -18 53 35 80 76 106
94 188 131 l60 26 60 -32 c34 -18 90 -51 126 -73 110 -67 457 -249 547 -287
87 -36 237 -74 385 -96 70 -10 142 -27 160 -36 57 -30 321 -94 395 -97 29 -1
53 -3 53 -5 0 -11 -250 -92 -360 -117 -58 -13 -93 -24 -78 -24 49 -2 334 76
454 124 174 70 244 109 487 274 148 100 304 160 419 161 43 1 106 30 139 66
15 16 48 63 75 104 117 183 185 248 316 301 100 40 256 121 242 126 -6 2 -66
-23 -135 -56 -68 -32 -187 -80 -263 -105 -77 -26 -196 -73 -265 -105 -457
-212 -966 -307 -1371 -257 -170 21 -317 60 -412 107 -71 36 -285 213 -524 434
-196 180 -288 262 -368 326 -72 58 -90 85 -135 207 -63 171 -94 369 -111 703
-10 207 -16 389 -14 389 1 0 21 -33 44 -72 24 -40 54 -86 69 -102 25 -27 231
-204 274 -236 19 -14 19 -13 9 5 -15 28 -78 86 -133 123 -84 56 -182 173 -232
274 -68 140 -89 216 -87 323 1 50 -1 118 -5 152 -7 59 -2 113 12 113 4 0 40
-25 80 -56z m4092 -1435 c-58 -117 -122 -223 -177 -299 -68 -92 -149 -187
-166 -193 -7 -3 -46 17 -87 45 -126 86 -261 144 -423 183 -49 12 -85 24 -80
27 5 3 35 9 66 12 35 5 89 23 140 48 67 33 110 45 223 64 194 34 312 69 430
129 55 28 101 50 103 49 2 -1 -11 -31 -29 -65z m2902 -666 c181 -184 240 -275
272 -418 132 -587 122 -715 -78 -1016 -102 -153 -120 -196 -129 -306 -7 -86
-26 -138 -78 -215 -44 -66 -94 -103 -194 -146 -98 -41 -149 -75 -220 -146 -50
-50 -71 -84 -122 -191 -94 -197 -94 -197 -141 -233 -50 -38 -71 -38 -89 0 -48
101 -173 103 -260 3 -39 -44 -70 -102 -142 -271 -77 -178 -115 -237 -205 -316
-125 -111 -237 -171 -395 -213 -78 -21 -179 -56 -240 -85 -149 -69 -195 -79
-430 -91 -361 -19 -508 0 -699 91 l-103 50 32 37 c17 21 112 117 209 213 262
258 302 332 380 712 23 108 50 225 61 260 29 94 70 269 70 299 0 23 6 27 51
37 62 15 167 75 274 158 92 71 257 237 302 304 86 127 156 321 173 478 12 115
17 132 34 132 6 0 46 -9 90 -20 43 -11 97 -20 120 -20 41 0 98 27 124 59 29
36 55 111 73 213 17 93 64 249 112 373 9 22 26 72 37 112 12 39 28 74 36 77 8
3 69 15 137 26 67 11 172 37 232 57 118 39 342 142 414 191 l45 30 55 -43 c31
-24 117 -105 192 -182z m-3857 -291 c-45 -41 -101 -116 -132 -177 -56 -111
-139 -170 -258 -185 -110 -14 -202 2 -332 59 -39 17 -76 31 -83 31 -29 0 5 13
107 40 126 33 267 81 409 141 132 54 319 128 325 128 3 0 -13 -17 -36 -37z
m-1819 -282 c196 -49 516 -65 691 -34 240 43 254 44 319 22 33 -12 71 -26 85
-33 14 -6 62 -22 108 -35 l83 -23 -63 -32 c-35 -17 -127 -72 -203 -121 -77
-50 -177 -112 -222 -138 -77 -44 -87 -47 -155 -48 -59 -1 -90 5 -158 31 -81
30 -137 67 -267 176 -23 19 -95 77 -161 127 -186 145 -180 139 -157 134 11 -3
56 -14 100 -26z m4202 -211 c48 -21 104 -25 135 -8 37 20 30 1 -19 -50 -46
-47 -53 -51 -97 -51 -27 0 -86 10 -131 22 l-84 22 15 28 c15 28 39 46 83 58
29 8 38 6 98 -21z m653 -1866 c18 -20 28 -39 23 -40 -10 -4 -143 65 -143 73 0
2 20 4 44 4 38 0 48 -5 76 -37z m-4183 -1396 c27 -52 7 -51 -25 1 -18 29 -32
55 -32 59 0 12 42 -32 57 -60z"/>
<path d="M5049 7360 c25 -22 41 -26 41 -10 0 11 -33 30 -52 30 -7 -1 -3 -9 11
-20z"/>
<path d="M7000 7975 c19 -19 36 -35 39 -35 3 0 -10 16 -29 35 -19 19 -36 35
-39 35 -3 0 10 -16 29 -35z"/>
<path d="M5823 3573 c9 -2 25 -2 35 0 9 3 1 5 -18 5 -19 0 -27 -2 -17 -5z"/>
</g>
</svg>
