<?xml version="1.0" standalone="no"?>
<!DOCTYPE svg PUBLIC "-//W3C//DTD SVG 20010904//EN"
 "http://www.w3.org/TR/2001/REC-SVG-20010904/DTD/svg10.dtd">
<svg version="1.0" xmlns="http://www.w3.org/2000/svg"
 width="1254.000000pt" height="1254.000000pt" viewBox="0 0 1254.000000 1254.000000"
 preserveAspectRatio="xMidYMid meet">
<metadata>
Created by potrace 1.16, written by Peter Selinger 2001-2019
</metadata>
<g transform="translate(0.000000,1254.000000) scale(0.100000,-0.100000)"
fill="currentColor" stroke="none">
<path d="M6015 12206 c-46 -20 -79 -66 -140 -192 -95 -202 -170 -298 -470
-604 -217 -221 -350 -369 -445 -495 -163 -216 -346 -535 -422 -732 -10 -29
-22 -53 -24 -53 -3 0 -49 11 -102 24 -180 46 -341 57 -429 31 -72 -22 -110
-66 -118 -142 -10 -90 -12 -97 -56 -149 -83 -100 -85 -132 -15 -224 82 -109
79 -99 84 -274 5 -187 -9 -404 -43 -641 -51 -356 -106 -571 -232 -904 -47
-124 -102 -272 -123 -328 -46 -126 -84 -171 -290 -345 -256 -215 -316 -317
-406 -684 -61 -250 -116 -454 -194 -724 -28 -96 -65 -222 -82 -280 -152 -525
-202 -848 -202 -1315 0 -190 4 -299 17 -405 88 -717 325 -1314 718 -1812 107
-135 355 -381 494 -489 224 -175 477 -329 810 -495 111 -55 227 -121 280 -159
118 -86 337 -195 488 -244 152 -49 273 -75 447 -96 237 -28 401 -53 550 -84
231 -47 311 -56 520 -55 318 1 613 60 927 185 160 63 374 192 549 330 293 230
432 348 579 489 61 59 166 154 235 212 284 239 478 480 708 878 240 417 419
879 487 1260 23 126 44 243 101 545 60 321 -97 1163 -324 1735 -71 180 -129
306 -355 780 -108 227 -223 518 -271 684 -22 74 -26 108 -26 215 0 179 34 383
73 445 29 45 76 175 92 256 13 64 16 118 13 221 -4 125 -7 140 -35 200 -44 93
-138 213 -247 313 -125 114 -196 220 -260 386 -76 197 -112 243 -277 352 -90
60 -231 199 -286 282 -46 69 -98 207 -123 326 -46 221 -118 384 -243 543 -148
189 -292 289 -473 328 -46 9 -74 24 -124 64 -100 81 -158 114 -411 239 -352
173 -486 263 -609 411 -115 137 -154 178 -187 191 -40 17 -89 17 -128 0z m130
-34 c16 -10 68 -65 116 -123 172 -210 293 -292 769 -523 135 -66 198 -103 275
-163 211 -166 364 -408 436 -692 34 -131 37 -217 14 -361 -14 -84 -80 -320
-89 -320 -2 0 -4 53 -3 118 2 339 -170 597 -549 824 -358 215 -652 311 -949
311 -313 -1 -558 -93 -742 -280 -70 -70 -91 -100 -138 -195 -61 -125 -91 -237
-102 -387 l-6 -89 -59 -69 c-179 -205 -344 -506 -452 -822 -57 -165 -122 -423
-131 -518 -4 -40 -11 -73 -14 -73 -4 0 -34 28 -68 63 -61 60 -62 64 -74 137
-19 127 -7 449 25 611 50 258 123 479 236 714 179 369 375 633 773 1042 331
340 380 403 492 628 54 108 78 145 104 162 41 28 95 30 136 5z m1377 -912
c104 -28 233 -114 330 -219 128 -139 249 -353 284 -507 47 -205 69 -279 114
-379 181 -411 311 -844 374 -1250 44 -281 75 -602 82 -840 l6 -190 -58 -37
-59 -38 -7 28 c-4 15 -28 154 -53 309 -159 977 -312 1519 -650 2308 -59 138
-123 291 -142 340 -69 179 -148 315 -257 449 -23 28 -34 47 -24 44 9 -4 36
-12 60 -18z m-1227 -50 c327 -38 729 -217 1025 -458 135 -110 219 -227 268
-375 81 -244 62 -438 -62 -649 -22 -37 -43 -65 -46 -63 -4 2 -10 62 -14 132
-9 157 -24 227 -72 327 -47 97 -122 177 -230 242 -45 27 -108 68 -140 90 -73
51 -174 95 -290 125 -76 20 -113 24 -249 23 -182 0 -266 -17 -390 -79 -181
-88 -254 -190 -386 -543 -23 -62 -45 -109 -49 -105 -142 160 -239 352 -255
504 -8 74 13 209 46 292 27 69 111 180 173 229 124 98 358 178 522 178 47 0
73 19 27 21 -177 6 -379 -49 -518 -142 -127 -85 -204 -187 -250 -331 -32 -100
-40 -186 -26 -275 40 -259 198 -472 636 -859 98 -88 219 -197 269 -244 97 -93
300 -309 334 -358 l22 -30 -192 -144 c-106 -80 -272 -200 -368 -268 -370 -260
-515 -382 -657 -552 -64 -77 -66 -79 -86 -61 -23 21 -107 123 -369 446 l-186
231 28 75 c15 42 53 139 84 216 205 503 294 901 311 1380 8 231 23 348 56 450
95 298 335 498 670 559 155 28 227 31 364 16z m419 -655 c160 -36 279 -97 370
-189 101 -100 131 -164 131 -276 0 -93 -18 -143 -78 -216 -31 -37 -123 -114
-137 -114 -4 0 -10 26 -14 58 -17 154 -57 217 -171 272 -103 51 -204 73 -345
74 -137 1 -205 -14 -268 -61 -43 -32 -57 -61 -77 -163 -21 -109 -24 -120 -36
-120 -24 0 -123 88 -159 142 -79 119 -90 240 -31 356 49 97 145 167 296 217
107 35 159 42 295 44 89 1 139 -5 224 -24z m1248 -370 c44 -110 93 -236 108
-280 16 -44 46 -131 69 -193 131 -366 292 -1076 392 -1730 30 -196 30 -204 12
-217 -30 -24 -520 -355 -638 -432 -166 -108 -514 -324 -900 -556 -176 -106
-245 -149 -419 -265 -124 -83 -129 -86 -143 -67 -372 528 -470 654 -793 1023
-69 79 -144 166 -167 194 l-43 50 30 44 c50 72 138 161 242 244 154 124 244
182 608 390 362 207 799 534 1008 755 89 94 208 244 233 294 8 14 23 40 35 56
63 87 164 341 195 489 18 80 22 138 23 281 1 99 -2 205 -6 235 l-8 55 41 -85
c23 -47 77 -175 121 -285z m-705 72 c68 -64 129 -162 148 -235 8 -31 20 -107
25 -167 6 -61 14 -138 18 -173 8 -63 8 -64 -32 -118 -22 -29 -41 -52 -43 -50
-2 2 1 24 7 48 7 25 10 58 8 74 -5 36 -10 26 -40 -86 l-23 -85 -7 60 c-4 33
-14 143 -23 245 -18 197 -38 352 -55 410 -5 20 -25 61 -44 93 -30 49 -32 55
-13 45 12 -6 45 -34 74 -61z m539 21 c-3 -29 -8 -89 -12 -133 -12 -164 -57
-320 -144 -500 -161 -333 -377 -565 -860 -921 -178 -132 -333 -230 -610 -387
-229 -130 -318 -188 -476 -313 -83 -65 -236 -223 -262 -269 -10 -19 -11 -18
-31 5 -11 14 -20 29 -21 34 0 17 115 148 211 240 106 101 263 224 449 351 134
92 424 304 525 385 39 31 113 88 165 127 283 212 445 354 590 515 227 252 408
590 452 846 14 83 32 98 24 20z m-2621 -155 c-28 -486 -99 -776 -340 -1388
-34 -88 -66 -169 -69 -180 -6 -18 -11 -15 -44 25 -20 24 -67 78 -104 118 -66
74 -67 75 -62 121 43 363 191 786 397 1128 79 133 196 283 220 283 4 0 6 -48
2 -107z m677 -79 c21 -58 81 -145 125 -180 70 -56 160 -113 219 -139 72 -32
278 -91 399 -114 l90 -18 -40 -20 c-22 -11 -92 -44 -155 -73 -63 -28 -154 -70
-203 -92 l-87 -40 -143 127 c-78 70 -192 177 -254 237 l-111 109 18 52 c38
108 88 243 101 272 l14 29 6 -54 c4 -30 13 -73 21 -96z m-1542 106 c30 -5 87
-20 125 -32 l71 -22 -33 -96 c-40 -118 -86 -294 -110 -425 -14 -79 -18 -152
-18 -349 l0 -248 -68 73 c-114 123 -259 310 -312 403 -27 48 -72 121 -100 162
-75 113 -95 147 -95 166 0 10 20 41 44 71 59 73 65 86 76 168 10 82 30 110 96
135 44 16 225 13 324 -6z m2390 -49 c174 -56 230 -109 250 -241 20 -126 20
-125 -95 -187 -56 -29 -113 -53 -130 -53 -91 0 -402 81 -529 139 -53 24 -66
34 -66 52 0 31 21 149 27 149 2 0 16 -14 31 -31 74 -89 315 -134 467 -89 38
12 105 68 105 88 0 6 -11 24 -24 39 -23 27 -28 28 -113 27 -78 0 -96 -4 -156
-33 -38 -18 -66 -35 -64 -38 3 -2 39 7 81 21 144 49 291 21 223 -42 -49 -45
-196 -65 -307 -41 -45 10 -49 13 -38 27 12 15 11 16 -5 3 -43 -34 -177 53
-177 115 0 57 37 87 150 120 30 9 83 12 160 10 94 -3 133 -10 210 -35z m1891
-308 c125 -70 195 -160 253 -322 34 -94 89 -203 131 -262 19 -25 74 -83 122
-130 169 -161 239 -256 279 -373 14 -42 14 -53 0 -122 -37 -184 -195 -368
-520 -602 -54 -40 -103 -72 -107 -72 -5 0 -9 44 -9 98 0 196 -54 731 -101 992
-50 283 -159 667 -258 913 l-39 98 96 -93 c54 -52 122 -108 153 -125z m-1327
0 c8 -87 18 -206 22 -265 l7 -106 -49 -52 c-96 -103 -336 -306 -545 -462 l-36
-27 -50 62 c-27 34 -125 140 -218 235 -92 95 -166 174 -164 176 2 1 54 24 114
50 244 107 595 280 675 334 94 64 194 174 206 225 6 29 7 30 15 10 4 -11 14
-92 23 -180z m-3309 -433 c47 -118 120 -259 179 -348 54 -80 104 -134 293
-310 157 -147 241 -245 339 -397 158 -244 291 -486 384 -700 33 -77 81 -170
106 -207 25 -37 106 -124 184 -198 77 -72 181 -181 230 -241 103 -123 229
-233 375 -327 111 -72 332 -230 340 -243 3 -4 -41 -43 -97 -85 -482 -363
-1025 -831 -1375 -1185 -266 -269 -373 -400 -548 -669 -328 -502 -465 -853
-547 -1390 -40 -267 -36 -833 8 -1050 39 -192 121 -404 225 -580 49 -83 11
-43 -74 78 -198 283 -307 581 -421 1152 -24 124 -50 254 -56 290 -14 83 -58
221 -103 330 -54 131 -66 182 -87 365 -11 94 -26 193 -34 220 -9 28 -44 99
-80 159 -63 105 -86 169 -86 239 0 44 -23 124 -48 172 -12 22 -52 75 -90 118
-103 115 -105 147 -18 307 97 179 124 257 133 390 5 89 -16 288 -42 390 -13
50 -12 69 5 190 44 307 153 758 292 1205 42 135 163 475 268 750 111 291 175
504 215 713 47 244 92 723 82 885 -2 49 -1 85 2 80 4 -4 25 -51 46 -103z m120
-118 c42 -56 165 -194 273 -305 277 -284 338 -354 603 -682 128 -159 319 -389
423 -510 516 -599 524 -609 718 -862 72 -92 305 -417 332 -460 16 -28 -16 -10
-101 54 -48 37 -110 81 -138 97 -251 154 -373 259 -553 476 -35 41 -116 123
-181 182 -136 122 -193 200 -260 353 -102 235 -208 433 -372 698 -107 173
-207 286 -499 562 -110 104 -192 219 -274 382 -49 99 -65 137 -52 122 2 -2 38
-50 81 -107z m5312 -818 c-12 -142 -88 -325 -202 -490 -35 -49 -89 -137 -120
-195 -31 -57 -75 -128 -96 -157 -90 -119 -234 -201 -444 -253 -232 -56 -323
-116 -419 -274 -117 -192 -179 -268 -281 -340 -78 -56 -117 -73 -351 -150
-398 -131 -545 -257 -727 -620 -112 -224 -217 -344 -410 -467 -344 -221 -332
-212 -522 -404 -99 -100 -202 -196 -229 -214 -83 -56 -216 -106 -508 -194
-156 -47 -312 -97 -348 -112 -163 -66 -289 -143 -384 -233 l-59 -56 28 50 c94
168 280 421 433 590 311 344 994 950 1507 1334 304 229 432 313 965 634 490
296 802 497 1305 842 39 26 120 82 180 123 329 226 517 390 612 537 25 38 50
82 55 97 17 47 21 32 15 -48z m-166 -575 c-18 -135 -13 -431 14 -774 55 -710
95 -1006 225 -1700 102 -541 130 -778 137 -1160 10 -562 -64 -1063 -244 -1635
-145 -462 -386 -903 -636 -1167 -146 -153 -619 -544 -824 -680 -336 -222 -782
-356 -1228 -370 -187 -5 -312 8 -608 68 -82 16 -226 38 -320 50 -419 49 -612
96 -832 204 -304 148 -583 389 -760 654 -195 294 -289 553 -316 871 -28 333
36 560 320 1142 107 219 458 854 546 988 12 19 50 78 84 131 l61 96 218 63
c483 140 565 185 782 426 124 138 212 209 415 334 301 185 387 278 531 563 73
147 121 220 194 300 119 130 245 199 548 301 337 112 398 162 622 513 85 135
146 170 404 239 273 73 418 186 541 424 39 75 127 212 132 206 3 -3 0 -42 -6
-87z m77 -604 c75 -212 134 -348 314 -725 28 -58 80 -168 115 -245 240 -521
380 -1012 453 -1578 28 -221 27 -377 -5 -522 -13 -63 -41 -208 -60 -323 -45
-262 -72 -373 -145 -592 -160 -483 -440 -997 -742 -1363 -78 -94 -322 -337
-339 -337 -5 0 17 37 49 83 244 350 410 745 541 1282 101 412 140 698 148
1080 10 478 -19 745 -167 1535 -99 524 -151 946 -200 1605 -5 77 -13 165 -16
195 -3 30 -3 53 0 50 3 -3 27 -69 54 -145z m-5939 -65 c-125 -372 -255 -868
-311 -1187 -18 -106 -36 -193 -40 -193 -3 0 -10 15 -14 33 -3 17 -33 111 -65
207 -67 202 -89 313 -89 450 0 219 82 396 267 573 72 70 296 266 299 263 1 0
-20 -66 -47 -146z m-534 -872 c8 -48 42 -169 74 -270 144 -440 188 -716 146
-896 -17 -70 -63 -176 -119 -271 -20 -35 -44 -89 -53 -121 -15 -56 -15 -62 2
-106 9 -25 41 -73 71 -106 107 -120 120 -150 142 -331 8 -68 17 -89 57 -155
100 -160 121 -224 135 -404 13 -157 32 -236 100 -408 59 -149 77 -215 130
-500 100 -533 210 -875 361 -1126 103 -170 169 -250 431 -519 64 -66 116 -121
114 -122 -1 -2 -61 27 -132 63 -599 307 -968 604 -1293 1041 -457 613 -702
1485 -652 2314 25 408 76 674 234 1214 78 266 146 509 188 673 26 104 45 162
47 145 2 -15 9 -67 17 -115z m1918 -1840 c-147 -222 -457 -772 -615 -1093
-152 -308 -222 -475 -279 -665 l-28 -95 0 81 c-2 278 67 671 170 961 150 428
309 643 583 793 78 43 208 100 214 95 2 -2 -18 -36 -45 -77z"/>
</g>
</svg>
