<?xml version="1.0" standalone="no"?>
<!DOCTYPE svg PUBLIC "-//W3C//DTD SVG 20010904//EN"
 "http://www.w3.org/TR/2001/REC-SVG-20010904/DTD/svg10.dtd">
<svg version="1.0" xmlns="http://www.w3.org/2000/svg"
 width="1254.000000pt" height="1254.000000pt" viewBox="0 0 1254.000000 1254.000000"
 preserveAspectRatio="xMidYMid meet">
<metadata>
Created by potrace 1.16, written by Peter Selinger 2001-2019
</metadata>
<g transform="translate(0.000000,1254.000000) scale(0.100000,-0.100000)"
fill="currentColor" stroke="none">
<path d="M4523 11798 c-69 -59 -126 -94 -207 -124 -269 -100 -312 -126 -501
-300 -332 -305 -381 -364 -449 -538 -27 -67 -55 -181 -56 -222 0 -20 -3 -20
-72 -11 -40 5 -138 7 -218 4 -181 -6 -259 -28 -472 -130 -84 -41 -169 -80
-188 -87 -38 -14 -76 -45 -91 -72 -5 -10 -14 -54 -20 -98 -19 -159 -87 -252
-239 -331 -154 -79 -220 -171 -220 -306 0 -50 -2 -55 -31 -71 -111 -61 -184
-138 -249 -262 -133 -256 -142 -595 -27 -981 l34 -117 -121 -5 c-154 -6 -261
-34 -389 -100 -171 -89 -304 -232 -393 -423 -84 -178 -93 -220 -104 -474 -10
-227 -27 -307 -92 -433 -31 -60 -66 -107 -130 -173 -52 -54 -88 -99 -88 -111
0 -12 41 -70 91 -129 174 -208 314 -438 402 -659 45 -115 53 -140 113 -370 87
-333 199 -546 432 -823 85 -101 243 -251 357 -339 65 -50 213 -146 314 -203
80 -45 91 -54 75 -63 -54 -29 -151 -117 -198 -181 -166 -221 -187 -405 -82
-714 55 -160 144 -271 263 -328 81 -39 81 -40 107 -149 27 -117 79 -209 165
-295 76 -76 106 -94 321 -194 148 -69 235 -179 316 -401 80 -218 103 -256 178
-291 62 -29 149 -31 281 -8 63 11 122 14 195 11 159 -8 274 -53 420 -165 30
-23 102 -78 160 -122 176 -134 361 -216 545 -241 108 -14 296 -7 415 16 147
28 488 115 614 156 357 117 625 317 757 564 23 44 44 82 45 83 1 2 19 -1 39
-8 20 -7 100 -15 178 -19 170 -9 196 -19 316 -117 148 -122 165 -134 234 -169
161 -84 322 -87 497 -10 98 43 181 106 328 248 146 141 203 177 284 177 73 0
133 -26 259 -112 186 -128 220 -121 314 64 131 256 223 342 385 359 99 10 169
42 257 118 148 127 281 313 358 496 l38 90 141 0 c112 1 160 5 231 23 113 28
258 98 397 190 131 87 182 113 316 164 362 135 582 329 681 598 11 30 34 114
51 185 68 287 137 390 330 489 91 47 120 78 120 125 0 12 -17 69 -37 128 -34
100 -37 116 -36 218 1 95 6 127 37 235 137 470 152 630 86 884 -54 204 -169
364 -350 485 -78 52 -227 121 -262 121 -7 0 -19 4 -27 9 -11 7 -3 26 37 92 89
149 142 288 142 374 0 21 -5 65 -11 99 l-12 62 37 56 c96 144 89 273 -26 507
-33 69 -61 137 -60 153 0 15 16 62 36 105 19 43 42 116 52 162 12 53 30 104
52 140 42 70 38 89 -30 125 -82 44 -140 92 -205 170 -94 113 -105 131 -226
386 -73 155 -114 222 -192 313 -174 206 -475 327 -811 327 l-111 0 -6 93 c-4
66 -14 117 -36 182 -17 49 -36 117 -41 150 -18 114 -41 166 -95 221 -49 51
-97 74 -154 74 -55 0 -100 23 -144 74 -114 132 -343 182 -549 120 -12 -4 -18
0 -18 11 0 38 -77 249 -127 345 -92 178 -161 264 -383 473 -183 171 -217 213
-290 348 -30 56 -63 107 -72 113 -14 8 -30 6 -65 -7 -109 -42 -196 -58 -413
-77 -514 -45 -525 -47 -680 -86 -110 -27 -159 -45 -290 -107 -183 -85 -422
-268 -550 -420 l-54 -65 -52 104 c-134 270 -366 477 -604 539 -90 24 -235 15
-350 -19 -259 -79 -511 -42 -670 99 -66 58 -93 59 -157 3z m147 -22 c114 -97
245 -140 425 -140 105 1 137 5 260 37 206 54 312 49 458 -24 205 -104 364
-269 479 -501 21 -42 38 -83 38 -92 0 -9 -17 -41 -37 -71 -43 -63 -16 -59
-268 -45 -93 5 -244 21 -335 36 -154 25 -171 30 -260 76 -115 60 -128 59 -213
-20 -32 -29 -84 -65 -115 -79 -32 -14 -80 -42 -108 -64 -73 -56 -130 -78 -234
-89 -80 -8 -98 -13 -129 -38 -39 -31 -70 -83 -71 -119 0 -31 -10 -34 -65 -18
-61 19 -160 19 -247 0 -102 -21 -190 -68 -269 -142 l-69 -66 -88 41 c-48 22
-124 52 -169 66 -87 27 -266 66 -303 66 -20 0 -21 3 -15 43 35 228 135 400
335 575 47 41 112 101 145 132 192 182 245 216 444 289 143 53 193 79 269 145
30 25 62 46 72 46 10 0 42 -20 70 -44z m3776 -43 c69 -135 98 -169 324 -393
229 -226 295 -310 379 -479 92 -184 150 -442 136 -600 l-7 -74 -101 6 c-67 3
-151 18 -246 41 -300 74 -518 70 -818 -15 -162 -47 -357 -133 -518 -228 -44
-26 -54 -29 -75 -18 -15 8 -29 27 -36 54 -7 23 -31 79 -54 125 -190 378 -648
695 -1102 763 -27 4 -48 9 -48 12 0 3 32 47 70 98 188 250 451 451 738 564
195 76 292 93 792 136 285 24 356 36 440 74 69 31 78 26 126 -66z m-3009 -708
c65 -33 111 -49 173 -59 128 -22 346 -44 530 -56 315 -19 553 -98 815 -271
230 -152 448 -421 510 -628 6 -21 5 -23 -11 -16 -75 31 -147 39 -339 40 -155
0 -219 -4 -285 -18 -120 -25 -260 -73 -366 -123 l-90 -44 -60 24 c-135 55
-217 70 -389 69 -246 -1 -440 -46 -720 -167 -395 -171 -633 -406 -781 -771
-30 -75 -35 -81 -75 -97 -24 -9 -56 -17 -70 -17 -15 -1 -57 -10 -94 -22 -139
-43 -209 -157 -211 -349 -1 -85 -4 -103 -33 -165 -41 -89 -102 -307 -136 -483
-14 -76 -53 -256 -86 -402 -33 -146 -68 -316 -79 -379 -11 -62 -22 -116 -25
-119 -17 -17 -137 306 -186 498 -57 227 -73 521 -45 830 12 132 16 267 14 470
-3 342 1 367 121 730 43 129 93 281 110 336 18 56 51 133 73 170 22 38 58 103
81 144 133 249 219 352 338 408 127 61 260 77 371 46 63 -18 88 -10 88 28 0
25 33 89 56 109 26 22 76 36 157 43 81 6 147 34 235 100 34 25 65 46 68 46 21
0 99 47 147 89 36 31 68 51 82 51 14 0 64 -20 112 -45z m-2179 -446 c220 -23
437 -81 579 -153 l62 -31 -35 -55 c-20 -30 -53 -89 -74 -130 -21 -41 -62 -116
-92 -165 -51 -87 -84 -169 -128 -323 l-21 -72 -42 7 c-23 5 -85 7 -137 7 -245
-4 -470 -130 -579 -325 -57 -103 -89 -210 -112 -379 -16 -119 -31 -179 -84
-335 -35 -104 -66 -206 -70 -225 -4 -19 -10 -114 -14 -210 -8 -182 -7 -180
-63 -268 l-21 -34 20 -26 c11 -15 37 -36 59 -47 70 -37 109 -85 123 -152 18
-91 54 -134 152 -180 l81 -38 -8 -50 c-40 -248 59 -512 235 -624 58 -38 75
-70 120 -226 42 -143 76 -320 101 -518 21 -164 60 -371 86 -465 9 -29 14 -57
12 -62 -8 -24 -343 220 -498 363 -230 213 -494 548 -825 1047 -172 260 -270
443 -351 652 -42 111 -216 653 -248 778 -72 274 -80 504 -26 716 48 182 167
359 285 420 59 31 61 33 69 128 6 73 46 156 93 195 20 17 76 51 125 77 150 80
218 174 237 332 14 110 30 131 129 172 42 18 121 55 175 82 134 67 188 87 287
108 98 21 255 25 398 9z m6338 -40 c91 -17 157 -53 225 -124 64 -66 70 -69
203 -95 106 -22 160 -95 192 -262 9 -46 29 -123 46 -173 19 -57 32 -120 35
-171 l6 -81 -59 -7 c-33 -4 -114 -18 -181 -32 -67 -13 -125 -24 -128 -24 -3 0
-5 9 -5 20 0 33 -45 112 -87 151 -21 20 -72 61 -114 92 -83 61 -161 142 -188
196 -10 20 -28 66 -40 104 -14 42 -30 71 -43 78 -19 10 -98 6 -132 -7 -10 -4
-15 22 -20 123 -4 70 -8 144 -9 163 -2 35 -2 35 53 47 72 15 172 16 246 2z
m-911 -279 c50 -6 155 -27 235 -47 182 -45 318 -54 433 -28 94 21 104 16 131
-72 38 -124 101 -200 264 -322 122 -92 153 -141 167 -263 4 -41 23 -89 66
-175 67 -132 96 -217 131 -378 21 -99 23 -135 23 -365 0 -333 -6 -367 -150
-875 -85 -297 -123 -414 -188 -572 -149 -361 -284 -545 -568 -772 -37 -29 -86
-76 -109 -104 -41 -50 -59 -86 -199 -380 -103 -217 -202 -349 -346 -463 -43
-35 -80 -62 -82 -60 -1 1 18 50 42 109 72 175 102 330 130 681 22 270 49 443
96 616 53 193 90 301 127 370 22 41 59 127 82 190 42 114 43 115 97 150 63 41
115 100 146 167 17 38 21 64 20 128 -3 111 17 165 87 245 69 78 85 109 105
194 14 58 14 74 1 136 -41 196 -182 336 -417 414 -101 34 -129 39 -241 44
l-127 5 -6 46 c-17 124 -57 323 -76 381 -91 280 -273 451 -539 510 -140 30
-182 46 -315 114 -66 33 -122 62 -124 64 -20 12 302 170 449 220 251 86 453
114 655 92z m-1364 -255 c117 -20 209 -53 341 -123 136 -73 187 -92 343 -132
148 -37 224 -74 306 -147 171 -151 240 -313 295 -693 51 -356 52 -545 4 -773
-30 -143 -63 -236 -153 -427 -93 -200 -158 -403 -183 -575 -7 -55 -23 -134
-35 -175 -30 -110 -32 -120 -23 -120 13 0 1 -181 -13 -206 -7 -11 -19 -26 -27
-34 -14 -11 -16 -9 -16 13 0 14 9 55 21 92 11 36 19 74 17 83 -4 20 -42 -97
-58 -178 -11 -58 -25 -85 -77 -144 -37 -42 -46 -45 -34 -13 5 12 21 74 36 137
15 63 31 129 36 145 6 18 7 140 3 305 -10 376 -10 792 -1 1050 5 127 4 242 -1
280 -8 56 -10 40 -12 -120 -1 -102 -5 -223 -9 -270 l-6 -85 -8 60 c-12 96 -66
291 -109 394 -55 131 -87 192 -153 291 -31 47 -78 130 -105 185 -26 55 -77
162 -114 238 -80 168 -124 233 -224 335 -77 79 -162 137 -255 173 -27 11 -126
32 -220 48 -211 36 -225 41 -312 106 -38 28 -91 64 -117 79 -27 15 -48 30 -48
34 0 4 17 14 38 24 20 9 73 32 117 52 89 39 210 73 330 91 112 18 325 18 426
0z m-1166 -106 c98 -21 170 -47 255 -93 67 -36 173 -106 168 -111 -2 -3 -31 3
-63 12 -72 20 -224 22 -310 4 -159 -34 -360 -120 -480 -206 -33 -23 -103 -85
-156 -137 -53 -53 -104 -100 -114 -105 -12 -7 -35 -6 -74 3 -106 25 -237 13
-335 -30 -28 -13 -80 -49 -114 -80 -44 -40 -98 -74 -176 -111 -74 -35 -120
-64 -135 -84 -24 -31 -25 -31 -112 -31 -49 0 -89 2 -89 4 0 13 84 196 115 251
156 279 449 499 850 638 299 103 534 127 770 76z m400 -224 c140 -40 207 -56
300 -71 203 -32 294 -63 391 -135 146 -108 259 -263 356 -489 61 -143 137
-286 194 -365 51 -73 131 -237 169 -350 33 -98 83 -311 95 -402 10 -78 9 -104
-4 -169 -16 -75 -53 -156 -104 -224 -36 -49 -184 -200 -195 -200 -6 0 -7 27
-4 68 3 37 0 137 -8 222 -7 85 -16 223 -20 305 -10 245 -25 423 -46 548 -44
265 -213 569 -394 710 -33 26 -30 20 20 -33 229 -246 343 -502 374 -840 24
-267 33 -397 29 -420 -4 -25 -5 -25 -13 5 -13 49 -106 254 -142 314 -28 46
-33 64 -33 116 0 246 -221 427 -539 443 l-114 5 -61 64 c-70 75 -121 112 -191
138 -34 12 -74 41 -126 90 -150 143 -334 217 -582 235 -67 4 -144 14 -172 20
-27 6 -88 15 -134 18 l-84 7 81 80 c194 189 430 303 707 339 56 7 169 -6 250
-29z m-3078 -34 c29 -4 55 -9 57 -12 3 -2 -18 -69 -45 -149 -28 -80 -64 -201
-81 -270 l-31 -125 -2 -335 c-1 -226 -7 -398 -19 -530 -20 -218 -17 -333 15
-550 32 -224 104 -468 194 -655 l43 -90 1 -160 c0 -121 4 -180 19 -242 10 -46
15 -83 11 -83 -14 0 -122 105 -174 170 -29 36 -63 86 -75 110 -12 25 -31 57
-42 72 -10 15 -37 69 -59 120 -167 388 -242 476 -511 598 -67 31 -115 87 -124
147 -3 26 -13 60 -20 74 -17 33 -74 83 -124 109 -21 11 -42 25 -45 31 -4 6 10
44 30 84 l38 74 2 163 c3 184 13 239 76 408 60 164 67 192 94 373 33 227 80
344 182 458 138 153 381 240 590 210z m7233 -60 c198 -45 359 -132 487 -263
96 -99 146 -178 238 -375 43 -93 102 -206 133 -253 67 -105 187 -224 270 -268
34 -18 64 -37 67 -41 2 -5 -10 -34 -29 -65 -20 -34 -41 -90 -54 -146 -12 -50
-36 -123 -53 -163 -44 -100 -42 -125 24 -259 124 -252 127 -343 19 -514 l-33
-50 18 -73 c16 -68 16 -78 1 -152 -19 -89 -70 -198 -173 -364 -118 -191 -150
-246 -230 -400 -191 -367 -247 -446 -515 -719 -254 -260 -415 -385 -630 -492
-271 -134 -645 -207 -944 -185 -65 5 -119 10 -121 12 -2 2 -1 53 2 113 6 108
7 110 41 148 76 84 196 115 382 99 80 -7 140 -7 182 0 152 24 275 121 346 271
50 107 68 174 87 332 19 156 41 212 103 267 55 48 128 83 290 139 93 33 129
50 147 72 14 16 25 36 25 44 0 9 -17 50 -37 92 -51 104 -55 177 -17 322 53
204 43 399 -28 541 -36 71 -131 177 -191 212 -139 82 -308 92 -503 32 -43 -13
-79 -23 -81 -22 -1 2 9 39 23 82 14 44 44 145 66 225 129 460 159 667 139 956
-19 267 -66 454 -160 627 -27 51 -54 111 -59 135 l-10 42 51 15 c50 15 177 40
247 49 19 2 116 3 215 1 132 -3 202 -9 265 -24z m-5329 -336 c12 -5 2 -20 -42
-66 -46 -46 -73 -88 -124 -192 -113 -229 -159 -313 -193 -351 -63 -72 -123
-217 -156 -381 -24 -117 -41 -385 -29 -472 5 -40 6 -73 2 -73 -9 0 -169 302
-220 416 -69 152 -109 323 -109 458 0 142 34 242 114 343 35 44 57 59 147 102
71 33 128 69 170 106 71 62 125 90 214 111 57 13 191 13 226 -1z m304 0 c39
-8 144 -21 233 -30 171 -16 259 -38 365 -91 66 -34 163 -102 205 -146 l32 -34
-82 4 c-70 4 -102 -1 -202 -27 -132 -34 -278 -95 -364 -151 -57 -37 -137 -117
-189 -190 -23 -32 -37 -41 -78 -50 -94 -20 -125 -33 -165 -67 -54 -46 -87
-122 -99 -224 -5 -47 -29 -148 -54 -229 -25 -80 -51 -171 -57 -202 -6 -32 -15
-58 -19 -58 -10 0 -61 135 -61 162 0 33 95 223 122 244 25 20 43 44 34 44 -16
0 -90 -79 -108 -114 -30 -60 -39 -70 -49 -54 -6 8 -9 0 -10 -22 -1 -49 -13
-88 -22 -73 -19 30 -40 110 -69 253 l-31 154 17 112 c22 143 56 249 111 344
24 41 63 116 86 165 119 257 232 327 454 280z m856 -330 c134 -28 230 -108
380 -315 74 -103 141 -228 173 -323 17 -52 21 -157 7 -203 -5 -16 -14 -49 -21
-74 l-13 -45 -14 55 c-17 68 -45 112 -142 220 -170 189 -242 254 -331 298
-100 48 -190 72 -280 72 -84 0 -238 -27 -269 -47 -21 -13 -32 -14 -80 -3 -62
14 -129 14 -208 1 -29 -4 -53 -5 -53 -2 1 24 132 158 205 208 84 58 257 125
430 166 43 10 147 6 216 -8z m-1992 -58 c-97 -180 -75 -465 58 -762 30 -65 39
-102 50 -197 13 -111 12 -120 -6 -155 -37 -75 -112 -275 -138 -373 -15 -55
-31 -100 -34 -100 -4 0 -9 8 -12 18 -3 9 -15 43 -26 75 -11 32 -28 111 -37
175 -9 65 -18 119 -20 121 -8 8 -4 -125 6 -184 20 -122 60 -223 120 -304 86
-116 235 -261 333 -325 48 -31 87 -58 87 -60 0 -6 -90 29 -183 72 -151 70
-281 180 -360 303 -48 76 -151 281 -181 363 -29 77 -30 80 -16 71 18 -11 10
15 -29 94 -49 96 -61 141 -107 406 -49 281 -52 304 -53 418 -1 118 17 190 63
250 42 55 96 84 185 97 40 7 92 20 114 31 31 13 65 19 129 19 l86 0 -29 -53z
m4396 -72 c33 -9 105 -38 161 -65 84 -40 111 -60 166 -118 90 -96 132 -182
136 -282 4 -103 -18 -162 -98 -253 -89 -103 -125 -196 -101 -260 14 -35 -6
-114 -44 -173 -40 -62 -62 -84 -138 -136 -32 -21 -80 -59 -108 -84 -55 -49
-78 -57 -53 -19 9 14 14 25 10 25 -3 0 -21 -24 -39 -52 -47 -73 -559 -660
-595 -682 -14 -9 1 129 38 344 52 307 90 431 213 705 129 290 163 419 174 671
5 127 -7 331 -24 388 -5 18 1 19 118 13 68 -3 151 -13 184 -22z m-1781 -129
c148 -50 239 -125 298 -243 33 -68 40 -125 29 -248 -5 -60 -47 -218 -88 -330
-58 -160 -69 -153 -29 18 29 123 39 200 26 192 -5 -3 -28 -33 -51 -65 -40 -57
-63 -75 -40 -32 25 48 4 188 -42 277 -45 87 -78 126 -157 186 -40 31 -83 75
-102 104 -17 27 -51 75 -74 106 -24 31 -40 59 -37 63 16 16 191 -2 267 -28z
m-2140 -117 c-8 -41 -17 -119 -20 -174 -6 -139 -32 -440 -44 -500 -5 -27 -17
-101 -26 -162 -9 -62 -20 -110 -25 -107 -5 2 -18 35 -30 72 -40 128 -24 476
32 679 29 107 111 284 125 271 2 -3 -3 -38 -12 -79z m1375 30 c160 -28 344
-154 425 -291 108 -181 122 -420 32 -533 -13 -16 -26 -28 -29 -25 -5 5 14 101
32 160 14 44 14 150 1 150 -5 0 -10 -23 -10 -52 l0 -51 -26 24 c-14 13 -42 48
-61 76 -40 61 -86 100 -164 140 -31 15 -84 47 -118 70 -132 89 -256 110 -378
64 -77 -29 -168 -109 -218 -191 -35 -58 -74 -159 -75 -192 0 -10 -7 -18 -15
-18 -9 0 -15 9 -15 25 0 35 47 171 81 234 16 30 27 56 25 58 -8 8 -56 -79 -80
-146 -39 -108 -41 -110 -55 -58 -15 62 -14 86 8 165 46 164 103 242 237 328
93 60 265 86 403 63z m-438 -46 c8 -8 4 -15 -17 -26 -45 -23 -132 -121 -158
-178 -20 -41 -38 -61 -98 -102 -104 -73 -123 -89 -163 -137 -19 -23 -35 -38
-36 -33 -5 47 19 187 42 246 7 15 9 30 6 33 -3 3 -19 -38 -36 -91 -36 -113
-50 -217 -32 -239 7 -8 11 -23 8 -33 -3 -15 -6 -14 -14 7 -14 32 -78 94 -67
65 9 -26 86 -142 116 -177 12 -15 69 -64 125 -110 117 -97 309 -201 443 -242
47 -15 99 -31 115 -36 17 -5 47 -12 68 -16 20 -3 39 -10 42 -14 2 -4 -35 -17
-83 -30 -48 -12 -132 -44 -188 -70 -82 -38 -115 -48 -180 -54 -96 -9 -192 -28
-302 -62 l-82 -25 -45 31 c-35 24 -48 41 -59 78 -8 26 -42 123 -76 216 l-63
168 32 137 c33 137 77 287 91 306 4 6 10 37 13 70 9 98 25 153 57 199 49 73
89 90 275 121 92 15 250 14 266 -2z m1217 -200 c43 -43 97 -160 111 -240 9
-46 9 -79 0 -127 -9 -56 -16 -69 -50 -100 -24 -21 -41 -30 -43 -23 -9 33 -28
135 -46 252 -23 153 -38 221 -55 255 -7 14 -16 36 -20 50 l-8 24 39 -29 c22
-16 54 -44 72 -62z m-3099 -478 c11 -44 36 -131 56 -193 27 -89 37 -142 46
-255 15 -184 5 -448 -21 -592 -64 -344 -71 -393 -73 -532 -1 -79 -3 -143 -5
-143 -12 0 -209 127 -294 191 -120 89 -116 83 -144 249 -17 104 -15 342 4 435
6 28 20 104 32 170 12 66 37 183 55 260 19 77 50 223 70 325 56 286 107 477
153 580 l24 55 39 -235 c21 -129 47 -271 58 -315z m2267 439 c52 -18 167 -89
198 -123 18 -20 17 -20 -35 1 -63 24 -146 26 -221 3 -58 -17 -114 -49 -122
-70 -3 -8 -22 -23 -44 -34 -21 -11 -66 -46 -100 -78 -65 -63 -90 -106 -72
-128 13 -15 3 -85 -11 -85 -5 0 -29 18 -54 41 -55 50 -63 85 -39 160 47 144
150 264 269 312 53 21 168 22 231 1z m-610 -111 c-7 -27 -30 -88 -50 -137 -20
-49 -48 -120 -61 -159 l-24 -71 -50 50 c-55 55 -62 80 -40 157 10 38 115 157
138 157 7 0 29 11 49 25 20 14 40 25 43 25 4 0 1 -21 -5 -47z m1217 -31 c39
-38 51 -59 73 -126 25 -79 25 -82 8 -113 -9 -18 -21 -33 -25 -33 -4 0 -13 17
-20 37 -7 21 -23 58 -36 82 -12 24 -23 56 -23 70 0 28 -21 104 -40 143 -9 20
-9 21 2 4 7 -10 34 -39 61 -64z m-1826 -272 c34 -69 81 -183 106 -255 25 -71
61 -174 81 -227 19 -54 32 -98 29 -98 -3 0 -27 13 -52 28 -25 16 -91 50 -146
77 -104 51 -205 135 -205 172 0 9 13 110 29 223 16 113 32 245 36 295 3 49 9
94 13 99 3 6 16 -34 27 -89 16 -73 38 -134 82 -225z m1379 271 c53 -24 88 -70
109 -144 18 -64 15 -102 -13 -166 l-18 -38 -27 58 c-35 74 -68 107 -164 160
-71 39 -84 43 -148 44 -82 0 -124 -17 -144 -59 -14 -29 -23 -177 -12 -193 9
-13 116 -81 145 -93 85 -33 83 -31 61 -40 -20 -8 -103 -20 -156 -24 -19 -1
-40 7 -62 25 -30 25 -35 36 -46 109 -7 45 -10 85 -7 88 3 3 6 -2 6 -11 0 -9
10 -22 23 -28 22 -12 22 -12 3 9 -10 12 -21 41 -23 64 -4 38 -1 49 29 88 19
25 47 50 64 55 16 6 48 25 69 43 84 69 223 93 311 53z m1081 -108 c109 -228
143 -391 143 -680 l0 -108 -67 -50 c-119 -89 -112 -86 -195 -71 -40 8 -106 17
-146 21 -79 8 -98 9 -244 21 l-97 7 62 69 c119 131 170 193 222 273 105 159
186 353 226 538 13 59 26 107 29 107 3 0 33 -57 67 -127z m-959 93 c37 -19
202 -201 202 -223 0 -13 -54 -63 -67 -63 -6 0 -17 17 -24 38 -6 20 -15 42 -19
47 -4 6 -13 27 -20 48 -7 21 -34 68 -61 103 -26 35 -46 64 -43 64 3 0 17 -6
32 -14z m-5104 -4 c3 -4 39 -116 81 -247 155 -484 236 -647 551 -1112 128
-190 322 -453 431 -585 34 -43 63 -79 63 -82 0 -3 -15 0 -32 5 -18 5 -74 9
-124 9 -82 0 -97 -3 -153 -31 -117 -59 -171 -184 -158 -368 8 -104 19 -142 86
-293 29 -64 57 -145 63 -180 31 -188 39 -223 68 -282 67 -142 175 -220 353
-256 51 -10 105 -24 121 -30 37 -14 126 -88 126 -105 0 -7 9 -33 20 -58 12
-26 24 -88 30 -148 25 -243 83 -362 300 -606 33 -37 60 -70 60 -73 0 -4 -26
-15 -57 -25 -294 -92 -577 -90 -873 8 -97 32 -419 186 -571 273 -305 174 -559
395 -751 654 -161 218 -255 408 -318 645 -91 343 -119 423 -197 579 -89 178
-235 395 -367 545 -31 36 -56 67 -56 71 0 3 37 45 82 92 167 173 228 336 228
606 0 159 12 242 51 357 117 342 349 559 674 628 75 16 261 22 269 9z m5152
-147 c60 -128 63 -146 26 -163 -52 -22 -92 -31 -92 -21 0 6 7 24 17 42 19 37
22 172 4 190 -11 11 -16 47 -6 47 3 0 26 -43 51 -95z m485 -68 l22 -98 -24
-26 c-13 -14 -44 -39 -68 -56 l-44 -30 7 29 c15 60 18 104 7 104 -6 0 -11 -10
-11 -23 0 -31 -29 -118 -47 -138 -12 -15 -172 -99 -188 -99 -3 0 27 36 67 80
40 44 94 113 120 153 26 40 53 78 59 85 11 13 23 47 51 147 l11 40 8 -35 c4
-19 18 -79 30 -133z m-1428 96 c6 -49 45 -175 90 -295 15 -38 24 -68 20 -68
-19 0 -129 69 -173 108 l-51 47 36 100 c20 55 42 114 47 132 14 42 24 35 31
-24z m569 27 c21 -6 50 -22 66 -35 16 -13 40 -27 55 -30 35 -9 74 -49 103
-107 30 -59 31 -94 4 -101 -16 -4 -20 0 -20 22 0 15 -4 31 -9 37 -5 5 -11 24
-13 43 -2 19 -11 39 -20 45 -25 15 -34 -1 -14 -23 10 -11 16 -26 14 -33 -3 -9
-18 0 -43 25 -21 21 -50 44 -64 51 -34 17 -136 28 -158 17 -10 -5 -38 -13 -62
-19 l-43 -10 5 35 c8 45 30 69 75 81 50 13 80 14 124 2z m1059 -146 c-11 -44
-25 -113 -32 -154 -19 -123 -79 -221 -256 -420 l-121 -136 -108 8 c-160 11
-261 25 -435 63 -158 35 -370 62 -389 50 -5 -3 -10 -1 -10 5 0 25 241 102 490
156 192 42 325 88 460 161 115 62 185 118 310 243 58 58 106 104 108 104 2 -1
-6 -37 -17 -80z m-2621 -49 c141 -269 235 -381 385 -455 266 -131 470 -289
679 -525 l70 -80 -89 -6 c-159 -11 -376 12 -535 58 -142 40 -504 202 -590 263
l-26 18 23 194 c25 201 35 543 19 623 -4 22 -6 38 -3 35 2 -3 33 -59 67 -125z
m2242 38 l17 -47 -54 -66 c-120 -147 -207 -232 -221 -217 -11 10 88 146 119
165 45 26 87 110 87 172 0 78 20 75 52 -7z m-972 34 c-1 -13 -35 -57 -44 -57
-12 0 -6 31 10 55 16 24 34 25 34 2z m258 6 c-2 -10 -12 -19 -23 -22 -28 -5
-75 -60 -75 -88 0 -29 -11 -29 -39 1 -37 39 -9 106 44 106 13 0 27 5 30 10 3
6 20 10 36 10 24 0 30 -4 27 -17z m102 -17 c30 -14 43 -54 14 -41 -31 13 -84
18 -84 7 0 -5 25 -12 55 -16 30 -3 71 -14 90 -23 32 -15 36 -21 33 -52 -3 -32
-7 -36 -72 -63 -69 -29 -69 -30 -108 -12 -55 25 -101 61 -105 81 -3 23 28 83
43 83 18 0 64 26 58 33 -3 3 -3 11 1 17 7 11 30 7 75 -14z m-464 -132 c27 -23
73 -56 102 -74 28 -17 52 -36 52 -41 0 -5 -40 -9 -90 -9 l-90 0 -20 41 c-29
56 -70 180 -64 191 3 5 18 -8 33 -29 15 -21 50 -57 77 -79z m918 54 c-9 -60
-55 -158 -109 -234 -52 -72 -57 -75 -259 -114 -102 -20 -112 -21 -160 -6 -28
8 -97 29 -153 45 -95 28 -253 93 -253 105 0 3 58 5 128 5 217 1 291 16 477 98
50 22 107 43 128 47 42 8 151 56 182 80 11 8 21 16 23 16 1 0 -1 -19 -4 -42z
m-810 -39 c4 -34 5 -63 2 -66 -2 -3 -16 3 -30 14 -27 19 -28 31 -6 88 16 41
27 29 34 -36z m-1349 -161 c-7 -108 -22 -250 -35 -328 -5 -30 -12 -81 -15
-112 l-6 -58 -29 15 c-16 8 -41 31 -56 50 l-26 35 31 120 c17 66 40 139 50
163 11 23 27 65 36 92 19 59 44 115 51 115 3 0 3 -42 -1 -92z m3415 -403 c13
-330 7 -425 -36 -615 -49 -221 -48 -218 -202 -378 l-138 -142 -84 -21 c-103
-24 -230 -64 -500 -158 -112 -39 -208 -70 -213 -68 -13 4 105 158 274 359 221
263 319 388 438 558 249 355 376 598 422 805 l14 60 7 -50 c4 -27 12 -185 18
-350z m2323 274 c78 -26 144 -68 195 -123 151 -164 187 -382 110 -664 -38
-141 -25 -256 39 -352 13 -19 23 -42 23 -51 0 -31 -50 -61 -162 -99 -149 -49
-256 -102 -303 -147 -66 -64 -82 -114 -115 -362 -30 -224 -143 -398 -306 -473
-46 -22 -62 -23 -269 -23 -184 -1 -227 -4 -265 -18 -73 -29 -135 -74 -196
-143 -95 -109 -254 -234 -411 -325 -75 -43 -115 -60 -238 -99 -22 -7 -68 -31
-103 -53 -55 -34 -70 -39 -125 -39 -77 -1 -92 -8 -108 -55 -61 -189 -319 -364
-705 -478 -193 -57 -285 -70 -519 -70 -240 0 -265 4 -565 90 -341 97 -440 99
-945 14 -282 -47 -312 -49 -365 -26 l-45 20 55 15 c30 8 125 34 210 58 466
130 413 117 810 200 230 48 248 52 585 113 707 127 1096 267 1380 494 132 106
319 309 379 412 10 17 48 50 84 75 37 25 108 86 158 136 131 130 197 235 314
499 39 88 84 180 100 205 34 53 118 136 210 207 195 152 372 393 480 653 17
41 36 85 42 97 6 12 29 77 52 144 41 122 41 123 81 136 164 58 326 70 438 32z
m-6138 -154 c120 -254 237 -381 450 -488 39 -19 161 -67 272 -106 262 -92 314
-116 523 -246 274 -169 330 -200 575 -321 280 -137 363 -185 480 -274 107 -82
153 -127 139 -139 -5 -5 -81 -34 -169 -64 -262 -91 -489 -174 -665 -243 -179
-71 -191 -76 -294 -123 -37 -17 -72 -31 -77 -31 -6 0 -116 80 -247 178 -130
98 -266 199 -302 224 -105 74 -291 170 -500 258 -107 45 -225 97 -262 116 -60
30 -68 37 -74 70 -14 74 3 305 36 479 47 257 50 276 59 424 8 122 0 350 -14
421 l-4 25 11 -25 c6 -14 34 -74 63 -135z m3709 79 c-38 -103 -143 -311 -171
-338 -14 -14 -68 -38 -133 -60 -101 -34 -118 -36 -207 -34 l-98 3 95 55 c122
69 167 99 265 175 84 65 265 248 265 267 0 6 2 9 5 6 3 -3 -6 -36 -21 -74z
m-5038 -6 c120 -90 194 -198 307 -449 80 -176 136 -278 180 -326 31 -35 17
-35 -36 -2 -27 16 -101 57 -166 89 -214 108 -307 234 -347 466 -14 82 -15 109
-5 163 17 92 20 95 67 59z m6017 -45 c-88 -245 -242 -452 -498 -674 -186 -162
-277 -253 -362 -362 -106 -137 -161 -195 -197 -211 -34 -15 -116 -36 -141 -36
-10 0 35 55 112 138 71 75 194 214 272 307 79 94 209 242 290 329 80 87 192
213 249 280 93 110 277 296 293 296 4 0 -4 -30 -18 -67z m-2618 -121 c50 -10
108 -24 130 -30 22 -6 85 -18 140 -26 95 -14 173 -21 520 -46 236 -18 375 -36
375 -49 0 -17 -307 -165 -484 -233 -129 -50 -295 -98 -396 -114 -108 -18 -277
-14 -445 11 -55 8 -139 15 -186 15 -82 0 -88 1 -104 26 -35 54 -237 257 -332
335 -29 23 -53 45 -53 48 0 18 220 70 360 85 95 10 388 -3 475 -22z m-1263
-377 c250 -97 384 -120 708 -117 178 1 285 -3 440 -19 135 -14 236 -19 295
-15 186 11 419 78 660 188 l130 59 117 -1 c126 -1 212 15 306 56 28 13 52 21
52 18 0 -7 -127 -197 -210 -314 -71 -100 -263 -342 -426 -535 -62 -73 -219
-278 -276 -358 -7 -10 -38 -26 -68 -36 l-55 -18 -75 69 c-114 107 -259 196
-558 344 -151 74 -298 150 -328 169 -30 19 -56 35 -59 35 -2 0 -71 42 -152 93
-81 52 -182 112 -223 135 -74 40 -291 132 -313 132 -29 0 -251 163 -337 247
l-95 93 175 -89 c96 -50 228 -110 292 -136z m3712 83 c-69 -201 -114 -450
-144 -793 -28 -318 -39 -387 -87 -545 -71 -231 -177 -397 -373 -583 -251 -239
-499 -368 -938 -487 -137 -36 -582 -130 -621 -130 -10 0 -49 37 -87 81 -83 98
-215 217 -372 337 -106 81 -178 131 -445 313 -49 34 -87 62 -85 64 7 8 330 95
443 119 254 56 476 126 800 251 497 192 642 269 771 408 l69 74 72 6 c47 4 88
14 121 31 53 27 58 32 198 211 115 147 133 165 319 325 168 144 222 198 320
318 32 39 60 72 61 72 2 0 -8 -33 -22 -72z m-5359 -368 c39 -26 124 -93 189
-149 250 -212 455 -335 823 -491 353 -150 411 -185 885 -542 87 -65 228 -167
315 -228 563 -391 616 -431 808 -624 134 -135 139 -141 111 -144 -21 -3 -56
13 -135 61 -112 69 -212 118 -402 197 -519 218 -832 439 -1128 800 -121 147
-173 195 -266 240 -80 38 -104 45 -305 76 -192 30 -341 105 -523 263 -62 53
-151 127 -199 164 -121 94 -136 108 -219 224 -74 102 -191 271 -197 285 -6 12
169 -83 243 -132z m-145 -57 c130 -190 181 -245 335 -363 39 -29 106 -86 150
-125 200 -179 355 -254 600 -290 258 -37 320 -74 503 -295 183 -220 337 -360
572 -518 135 -91 267 -159 515 -267 110 -47 245 -109 300 -136 97 -49 225
-128 225 -140 0 -3 -78 -20 -172 -38 -245 -46 -561 -116 -708 -157 -69 -19
-208 -57 -310 -85 -102 -28 -207 -58 -233 -66 -27 -8 -60 -12 -74 -8 -40 10
-320 152 -473 240 -573 330 -924 732 -1075 1229 -31 104 -70 299 -90 451 -37
285 -90 542 -130 639 -16 37 12 7 65 -71z m8408 1 c137 -40 317 -154 405 -257
122 -144 183 -293 208 -512 10 -89 9 -122 -6 -225 -17 -122 -29 -171 -106
-440 -39 -135 -42 -154 -43 -270 0 -120 2 -129 38 -229 49 -136 46 -149 -42
-197 -247 -135 -305 -217 -377 -534 -37 -161 -81 -269 -149 -364 -111 -156
-302 -292 -536 -381 -144 -56 -244 -107 -364 -185 -201 -131 -331 -183 -500
-201 -88 -10 -236 -6 -236 6 0 1 7 38 16 81 29 149 58 213 144 327 48 65 92
160 122 264 18 64 22 103 22 218 0 152 -12 206 -69 308 -138 247 -542 425
-1007 444 -87 3 -158 7 -158 7 0 1 16 40 35 86 33 81 85 263 85 301 0 22 -9
22 121 8 206 -21 521 21 759 100 303 101 504 235 801 533 287 287 363 389 549
742 134 254 212 386 227 386 3 0 30 -7 61 -16z m-9068 -445 c46 -10 61 -21
183 -143 151 -152 294 -268 488 -399 l137 -92 41 -105 c107 -275 321 -558 600
-792 184 -154 520 -358 806 -491 419 -193 962 -394 1370 -507 551 -153 657
-189 812 -281 56 -34 130 -87 163 -119 97 -93 83 -102 -99 -66 -148 30 -253
33 -367 11 -169 -32 -299 -86 -521 -214 -227 -130 -340 -170 -484 -171 -201 0
-337 76 -525 296 -132 154 -162 174 -287 185 -115 11 -182 30 -235 69 -49 35
-109 120 -118 168 -10 49 -44 59 -97 28 -57 -33 -136 -53 -237 -61 -141 -10
-261 -55 -392 -148 -41 -29 -69 -41 -105 -44 -62 -6 -70 3 -122 137 -54 139
-119 248 -227 381 -159 196 -220 278 -247 333 -47 96 -77 204 -87 318 -11 125
-35 190 -95 256 -42 48 -101 72 -225 96 -155 29 -261 103 -325 227 -28 54 -55
153 -55 201 0 56 -35 177 -78 268 -71 153 -99 277 -88 387 14 132 68 218 166
262 52 24 166 28 250 10z m5050 -35 c0 -22 -148 -147 -226 -192 -254 -145
-903 -392 -1254 -477 -274 -66 -423 -104 -508 -130 l-84 -25 -34 26 c-19 15
-34 30 -34 34 0 7 206 98 365 160 301 119 1291 466 1600 561 72 23 135 42 140
44 17 6 35 5 35 -1z m1505 -1081 c-23 -232 -65 -391 -151 -573 -147 -308 -375
-545 -713 -739 -201 -115 -417 -193 -701 -252 -135 -29 -164 -31 -411 -36
l-265 -5 -90 35 c-87 35 -137 50 -600 182 -323 91 -585 181 -919 314 -66 27
-129 52 -140 56 -14 6 11 13 85 25 58 10 177 29 265 44 88 14 227 32 308 38
195 16 277 5 539 -71 274 -79 374 -95 568 -94 544 3 1141 272 1236 556 l16 47
56 0 c67 1 116 17 163 53 38 29 70 43 146 63 153 40 448 237 563 374 23 28 44
50 47 50 2 0 2 -30 -2 -67z m136 -613 c146 -15 245 -36 384 -82 259 -85 434
-216 520 -386 13 -26 31 -89 41 -140 14 -80 15 -107 5 -197 -12 -102 -44 -223
-78 -288 -9 -18 -45 -74 -81 -125 -75 -109 -96 -158 -123 -296 -43 -213 -158
-433 -311 -594 -161 -168 -225 -208 -362 -222 -99 -10 -124 -22 -201 -91 -68
-63 -114 -130 -184 -266 -54 -105 -96 -153 -134 -153 -26 0 -66 24 -157 90
-103 76 -164 102 -246 108 -107 7 -149 -16 -314 -172 -156 -148 -230 -203
-332 -250 -133 -61 -243 -71 -375 -33 -89 26 -171 77 -305 190 -143 120 -166
129 -338 138 -175 9 -226 23 -316 89 -38 28 -78 53 -89 55 -11 2 -81 6 -155 8
-145 5 -169 11 -309 81 -77 39 -197 127 -291 212 -36 33 -112 100 -170 150
-289 250 -400 435 -417 694 -7 109 22 290 46 290 27 0 109 -74 191 -171 110
-132 187 -197 285 -244 101 -47 160 -59 284 -53 128 6 234 40 374 119 350 197
446 237 629 265 126 19 235 14 371 -20 110 -26 134 -25 143 10 13 52 -56 116
-283 261 -14 9 21 12 167 12 206 0 347 16 536 61 437 104 792 299 1058 581 85
91 184 226 226 309 12 25 27 51 32 58 13 15 135 16 279 2z m-7102 -594 c282
-138 473 -189 716 -189 154 -1 270 17 418 63 l87 28 54 -82 c66 -99 74 -116
126 -247 73 -185 107 -194 293 -81 149 90 207 112 332 123 133 12 149 16 227
51 37 17 74 28 81 25 8 -3 23 -29 33 -59 12 -38 33 -68 73 -109 69 -68 137
-96 256 -105 72 -6 85 -10 80 -23 -53 -173 -45 -372 22 -539 29 -71 103 -190
167 -265 49 -59 452 -413 540 -475 74 -53 244 -136 308 -151 26 -6 98 -11 162
-11 l114 0 79 -52 c43 -28 80 -53 82 -55 9 -7 -61 -138 -104 -192 -57 -75
-175 -187 -255 -243 -92 -64 -238 -140 -355 -183 -149 -56 -618 -172 -770
-191 -347 -44 -598 31 -901 272 -236 188 -359 245 -544 252 -68 3 -142 -2
-207 -12 -170 -27 -240 -19 -296 33 -44 41 -64 79 -127 247 -101 269 -177 355
-395 449 -256 110 -375 253 -425 508 l-12 58 -73 34 c-91 41 -154 98 -207 186
-43 74 -101 240 -119 346 -32 182 30 373 171 526 66 72 158 147 182 147 9 0
93 -38 187 -84z"/>
<path d="M8935 7519 c-4 -6 -5 -12 -2 -15 2 -3 7 2 10 11 7 17 1 20 -8 4z"/>
<path d="M8896 7458 l-18 -33 21 25 c18 22 26 40 18 40 -1 0 -11 -15 -21 -32z"/>
</g>
</svg>
