<?xml version="1.0" standalone="no"?>
<!DOCTYPE svg PUBLIC "-//W3C//DTD SVG 20010904//EN"
 "http://www.w3.org/TR/2001/REC-SVG-20010904/DTD/svg10.dtd">
<svg version="1.0" xmlns="http://www.w3.org/2000/svg"
 width="1254.000000pt" height="1254.000000pt" viewBox="0 0 1254.000000 1254.000000"
 preserveAspectRatio="xMidYMid meet">
<metadata>
Created by potrace 1.16, written by Peter Selinger 2001-2019
</metadata>
<g transform="translate(0.000000,1254.000000) scale(0.100000,-0.100000)"
fill="currentColor" stroke="none">
<path d="M6415 11803 c-121 -11 -279 -37 -401 -67 -212 -52 -384 -124 -622
-258 -247 -140 -299 -156 -547 -169 -422 -21 -643 -102 -903 -331 -214 -188
-250 -205 -407 -193 -115 9 -203 -8 -343 -67 -191 -79 -253 -122 -292 -203
-11 -23 -38 -113 -60 -198 -44 -179 -69 -236 -176 -402 -233 -362 -301 -594
-241 -825 14 -53 43 -139 65 -191 109 -256 123 -340 121 -727 -1 -170 3 -313
10 -352 6 -36 18 -134 27 -219 16 -156 47 -288 84 -362 11 -21 18 -39 14 -39
-3 0 -31 17 -62 37 -86 57 -232 207 -401 415 -182 223 -284 323 -380 371 -90
45 -152 54 -227 32 -141 -41 -241 -223 -379 -691 -136 -460 -137 -494 -10
-580 102 -69 104 -117 11 -302 -88 -175 -103 -249 -66 -330 14 -30 32 -50 66
-70 168 -97 182 -198 74 -537 -54 -169 -64 -230 -57 -343 14 -270 226 -632
470 -806 35 -25 134 -81 222 -126 178 -91 234 -128 300 -202 63 -71 106 -147
160 -285 88 -229 138 -303 233 -345 25 -11 98 -28 161 -38 64 -10 142 -28 173
-40 83 -31 168 -98 224 -176 177 -244 239 -273 510 -240 178 22 222 21 275 -7
63 -33 99 -98 138 -254 87 -338 165 -433 646 -780 274 -197 551 -356 735 -421
148 -52 232 -66 375 -65 122 1 142 4 328 52 247 63 340 71 575 47 127 -13 167
-15 178 -5 20 17 18 24 -25 87 -78 113 -175 188 -371 287 -111 56 -120 62
-255 200 -154 157 -200 197 -385 334 l-125 93 59 -7 c33 -4 105 -10 160 -14
137 -11 203 -42 326 -157 65 -61 112 -95 163 -120 130 -61 163 -66 492 -74
349 -9 364 -12 540 -100 66 -33 143 -65 170 -72 72 -17 303 -14 410 5 340 61
653 217 981 490 213 177 555 546 748 806 45 60 135 199 200 308 65 108 167
265 226 348 121 171 167 245 205 330 61 138 105 341 130 604 48 486 93 646
242 846 127 171 229 238 450 295 52 13 95 48 118 95 9 20 28 102 41 182 41
242 77 319 199 430 75 70 100 117 91 178 -4 22 -33 94 -66 158 -78 156 -90
214 -90 424 0 298 -40 384 -245 524 -124 84 -204 167 -249 257 -44 89 -53 133
-61 287 -4 72 -11 145 -17 163 -15 49 -62 97 -137 141 -80 47 -91 59 -175 188
-105 161 -230 264 -388 321 -63 22 -89 26 -193 27 -99 0 -133 -4 -195 -23
-234 -74 -358 -197 -505 -504 -73 -152 -138 -220 -318 -332 -16 -10 -47 -34
-70 -54 -24 -22 -38 -30 -34 -19 4 10 32 97 62 195 31 97 83 252 116 344 137
377 116 512 -123 830 -125 165 -152 218 -228 443 -69 204 -96 260 -180 375
-115 159 -172 251 -207 338 -51 127 -80 179 -124 227 -50 55 -112 81 -225 95
-116 15 -211 45 -359 113 -66 30 -196 82 -290 117 -115 42 -212 86 -300 136
-151 86 -260 128 -369 143 -71 10 -327 12 -421 4z m380 -23 c124 -15 244 -58
388 -139 139 -79 189 -101 372 -167 72 -25 189 -73 260 -106 145 -66 200 -83
323 -98 92 -12 137 -27 194 -66 49 -34 81 -85 134 -213 53 -127 97 -202 196
-338 100 -136 146 -228 208 -416 66 -202 108 -284 220 -432 118 -155 153 -213
184 -307 49 -144 35 -266 -59 -513 -48 -126 -240 -739 -274 -872 -20 -80 -55
-265 -135 -713 -58 -324 -124 -661 -130 -667 -6 -7 -12 18 -31 152 -27 178
-61 331 -145 655 -88 338 -127 506 -195 840 -101 499 -136 614 -222 748 -42
63 -69 147 -60 182 9 34 -12 244 -34 345 -27 125 -59 215 -116 330 -57 113
-92 165 -162 239 -76 80 -112 96 -232 105 -109 9 -100 4 -288 140 -170 124
-252 148 -551 162 -224 10 -318 7 -457 -17 -183 -31 -382 -130 -658 -325 -207
-147 -388 -256 -685 -414 -192 -102 -240 -132 -364 -225 -321 -241 -481 -506
-626 -1040 -80 -292 -106 -537 -96 -890 3 -124 11 -400 16 -615 10 -409 19
-502 66 -694 14 -57 23 -105 21 -107 -2 -3 -46 46 -96 108 -51 62 -118 144
-149 182 -130 157 -231 228 -427 296 -323 113 -468 306 -509 675 -9 77 -23
190 -31 252 -11 81 -14 190 -12 400 3 359 -5 402 -123 698 -64 160 -81 231
-82 335 -2 166 67 345 245 632 143 231 152 251 197 449 48 212 85 260 262 334
221 94 235 97 408 99 191 1 195 3 372 155 313 270 486 339 908 361 250 14 301
27 495 131 390 208 568 279 812 324 266 49 494 64 668 45z m120 -1200 c103
-28 189 -73 303 -160 132 -100 159 -112 274 -119 87 -5 100 -9 140 -37 55 -40
166 -185 218 -286 50 -96 105 -261 127 -382 26 -143 23 -417 -6 -576 -51 -273
-142 -484 -299 -689 -110 -143 -232 -238 -457 -356 -171 -89 -146 -73 -571
-355 -399 -266 -530 -358 -639 -454 -62 -55 -67 -57 -50 -27 30 51 177 203
285 293 89 75 313 245 616 467 555 408 717 604 825 996 24 87 34 310 14 310
-6 0 -9 -21 -7 -50 4 -68 -18 -217 -31 -212 -5 1 -34 46 -62 100 -29 53 -78
136 -109 184 -46 73 -63 114 -101 243 -26 85 -61 187 -80 225 -95 198 -248
322 -460 371 -130 31 -417 25 -715 -15 -129 -16 -302 -37 -385 -46 -464 -48
-587 -95 -785 -301 -82 -86 -270 -310 -338 -403 -85 -116 -131 -248 -139 -401
-7 -130 7 -216 53 -332 l35 -87 -15 -63 c-25 -108 -64 -202 -178 -431 -200
-402 -267 -591 -343 -970 -19 -93 -36 -171 -38 -174 -2 -2 -7 29 -11 69 -19
192 -44 370 -45 318 0 -30 6 -118 14 -195 24 -226 20 -325 -19 -520 -19 -94
-36 -181 -38 -195 -9 -66 -72 217 -87 395 -26 304 -35 1381 -13 1525 36 234
106 502 185 710 106 279 238 463 456 638 139 112 209 156 477 300 254 137 391
217 489 287 402 284 595 384 820 425 28 5 176 7 330 6 251 -3 288 -6 360 -26z
m-35 -549 c113 -34 186 -77 270 -161 52 -52 88 -99 117 -155 50 -95 124 -337
183 -595 41 -180 42 -189 37 -317 -3 -73 -9 -138 -13 -145 -4 -7 -15 23 -26
72 -30 141 -89 279 -175 415 -59 92 -121 155 -213 218 -41 28 -120 91 -175
139 -218 194 -389 228 -720 145 -165 -42 -252 -74 -355 -129 -205 -109 -393
-306 -538 -563 -89 -159 -159 -270 -168 -270 -14 0 -24 113 -18 200 7 94 29
200 56 269 18 48 18 70 -2 50 -16 -16 -47 -112 -66 -204 -34 -170 0 -407 91
-640 56 -143 155 -345 317 -645 80 -148 173 -326 208 -394 92 -185 205 -385
271 -481 86 -126 220 -272 359 -390 376 -320 409 -353 613 -616 64 -82 161
-202 216 -268 128 -152 246 -317 306 -431 27 -49 46 -88 43 -85 -3 3 -29 37
-58 75 -86 114 -755 774 -903 890 -71 55 -176 138 -235 184 -231 180 -441 387
-549 543 -69 98 -121 209 -173 366 -95 287 -143 373 -277 503 -37 37 -111 95
-163 130 -205 135 -241 178 -354 423 -25 54 -68 130 -94 170 -109 160 -172
312 -187 447 -15 138 27 329 97 446 36 61 301 387 382 471 99 104 236 186 368
221 104 28 170 39 358 56 91 9 264 29 385 45 121 16 236 31 255 34 19 2 130 3
245 1 182 -2 220 -5 285 -24z m-254 -392 c74 -23 151 -73 259 -170 44 -39 120
-98 168 -132 50 -33 108 -85 133 -115 62 -75 139 -210 180 -309 44 -110 84
-292 84 -383 l0 -73 -72 -84 c-81 -95 -179 -187 -188 -176 -10 12 -28 97 -46
208 -29 186 -118 404 -235 577 -89 130 -255 294 -339 335 -108 51 -191 66
-332 61 -111 -5 -135 -9 -248 -47 -182 -61 -257 -100 -315 -164 -161 -175
-198 -226 -287 -402 -39 -77 -79 -151 -88 -165 -10 -14 -32 -54 -50 -89 l-33
-65 -44 50 c-61 70 -69 106 -38 169 32 65 168 296 242 410 70 109 251 299 342
359 137 91 271 146 476 196 180 43 311 46 431 9z m-192 -299 c98 -25 165 -61
238 -128 102 -95 154 -243 129 -374 -21 -107 -21 -108 -46 -57 -13 24 -58 81
-101 127 -66 72 -90 90 -176 133 -138 69 -197 83 -333 76 -136 -6 -213 -33
-334 -115 -93 -63 -176 -160 -187 -218 -11 -61 -22 -45 -39 56 -8 46 18 168
49 228 26 50 113 140 162 165 51 26 297 106 354 116 96 15 202 12 284 -9z
m3901 -7 c112 -28 240 -109 327 -208 20 -22 61 -79 91 -126 62 -95 102 -135
192 -192 101 -64 125 -115 125 -267 1 -260 92 -422 320 -568 88 -57 164 -136
193 -200 36 -80 47 -165 46 -349 -1 -189 14 -255 92 -400 40 -73 52 -107 56
-154 l6 -60 -81 -77 c-44 -42 -95 -99 -112 -127 -42 -68 -76 -182 -100 -333
-32 -199 -52 -225 -195 -262 -232 -59 -429 -252 -539 -527 -58 -145 -76 -246
-121 -667 -46 -429 -95 -558 -350 -911 -40 -55 -114 -170 -165 -255 -176 -294
-270 -425 -471 -655 -348 -399 -640 -648 -952 -815 -246 -131 -505 -200 -757
-200 -133 0 -209 19 -337 84 -172 87 -233 98 -553 101 -234 2 -274 5 -345 24
-121 32 -193 72 -272 150 -65 65 -169 141 -193 141 -5 0 -10 4 -10 9 0 5 30
12 68 16 107 11 276 70 360 126 39 26 42 19 5 -16 -43 -39 -10 -29 40 12 46
39 122 129 287 338 212 270 500 602 915 1055 590 644 741 824 920 1100 150
231 218 361 406 774 229 502 386 748 614 964 132 124 291 226 413 262 23 7 42
17 42 22 0 32 -171 -39 -307 -129 -132 -87 -322 -283 -420 -433 -21 -33 -41
-59 -45 -60 -5 0 -8 13 -8 29 0 49 -56 252 -106 383 -65 172 -151 357 -241
522 -181 332 -224 413 -234 447 -9 30 -7 56 15 151 30 136 72 271 94 307 32
53 109 124 177 163 39 23 103 75 145 117 64 65 85 96 144 211 38 74 88 165
112 201 155 236 439 349 709 282z m-2761 -306 c62 -113 76 -145 71 -168 -16
-73 -103 -269 -140 -314 -15 -19 -15 -16 -10 50 4 39 11 97 16 130 16 106 10
185 -25 345 -33 152 -34 154 -11 126 13 -16 57 -92 99 -169z m456 119 c0 -37
68 -212 121 -312 57 -107 60 -117 103 -330 93 -455 119 -570 269 -1154 65
-251 112 -514 120 -674 2 -45 -3 -98 -15 -150 -46 -196 -75 -417 -108 -816
-32 -387 -111 -721 -246 -1038 -55 -127 -159 -334 -211 -419 -30 -49 -291
-348 -501 -573 l-33 -35 34 70 c99 202 157 481 142 685 -22 313 -156 675 -351
946 -31 43 -125 162 -208 264 -83 102 -187 232 -231 289 -116 152 -275 313
-480 486 -263 222 -426 402 -522 578 l-26 47 40 47 c70 84 301 261 573 438 74
49 227 150 340 225 113 75 264 167 335 205 278 146 383 223 499 369 166 206
253 395 312 676 13 63 24 132 24 153 0 20 5 37 10 37 6 0 10 -6 10 -14z
m-1755 -60 c100 -18 133 -30 168 -64 51 -48 71 -99 70 -177 -1 -38 -5 -81 -11
-95 l-9 -24 -13 24 c-7 14 -36 48 -63 77 -46 49 -48 53 -26 53 37 1 7 14 -89
39 -70 19 -90 20 -139 12 -31 -6 -74 -22 -97 -36 -180 -108 -204 -126 -251
-183 -27 -33 -53 -61 -56 -61 -14 -2 -39 82 -39 131 0 163 199 306 440 316 19
1 71 -4 115 -12z m1867 -126 c33 -83 41 -110 33 -110 -9 0 -92 180 -100 215
l-6 30 24 -35 c13 -19 35 -64 49 -100z m-1253 6 c55 -80 124 -214 169 -326 29
-74 58 -201 82 -370 7 -47 18 -88 24 -92 7 -5 6 -8 -4 -8 -8 0 -21 -9 -28 -21
-19 -30 -108 -66 -260 -105 -118 -30 -147 -34 -260 -33 -139 0 -164 6 -384 81
-116 39 -152 58 -113 58 46 0 240 75 306 118 181 118 354 346 395 518 18 79
15 224 -6 265 -13 24 -13 24 8 5 12 -10 43 -51 71 -90z m-1316 7 c-19 -63 -12
-178 17 -263 54 -158 168 -339 296 -470 35 -36 64 -68 64 -71 0 -7 -49 1 -228
37 -191 38 -306 84 -414 165 -63 46 -71 68 -39 103 10 12 35 59 56 106 84 189
229 440 256 440 4 0 0 -21 -8 -47z m973 5 c64 -44 103 -134 103 -242 1 -77 1
-79 -18 -62 -19 17 -19 16 -10 -21 5 -21 9 -59 9 -85 0 -55 -11 -66 -106 -98
-82 -29 -182 -35 -279 -17 -77 14 -79 15 -50 26 213 83 320 180 341 309 4 23
10 45 14 47 10 6 -11 89 -34 133 -19 38 -14 40 30 10z m-251 -93 c32 -15 78
-49 109 -81 60 -60 78 -106 53 -131 -14 -14 -19 -12 -51 20 -24 25 -56 42
-100 56 -61 19 -69 19 -118 5 -29 -8 -65 -18 -81 -21 -15 -3 -30 -9 -33 -14
-12 -21 -34 -6 -45 30 -35 119 124 201 266 136z m-601 -42 c-10 -16 -24 -40
-32 -55 -15 -31 -25 -38 -15 -10 10 25 52 92 59 92 4 0 -2 -12 -12 -27z m1042
-80 c21 -49 17 -80 -21 -148 -33 -60 -65 -98 -65 -78 0 6 7 50 16 99 9 56 13
113 9 154 l-6 65 26 -30 c15 -16 33 -44 41 -62z m-736 53 c0 -2 -7 -23 -16
-47 -9 -24 -18 -90 -21 -146 -6 -110 -8 -112 -58 -93 -40 15 -115 80 -115 100
0 22 93 121 150 159 42 28 60 36 60 27z m-272 -161 c55 -108 177 -170 412
-210 205 -35 242 -36 343 -11 51 13 101 27 112 31 31 12 -82 -101 -152 -151
-80 -58 -170 -98 -289 -129 -145 -38 -137 -40 -249 77 -98 102 -180 216 -235
327 -35 71 -37 91 -9 151 l22 45 12 -45 c6 -25 21 -63 33 -85z m299 50 c35
-54 107 -89 212 -104 50 -7 91 -17 91 -22 0 -15 -98 -59 -177 -80 -93 -23
-157 -13 -167 27 -7 28 4 214 13 214 3 0 16 -16 28 -35z m277 15 c97 -37 134
-84 85 -111 -23 -12 -103 -6 -123 10 -6 4 -33 11 -61 15 -27 3 -65 14 -82 23
-33 18 -43 33 -21 33 6 0 19 7 28 15 14 13 72 31 107 34 7 1 37 -8 67 -19z
m-1004 -377 c115 -87 283 -142 590 -194 143 -24 225 -44 360 -89 96 -33 204
-64 238 -71 95 -18 244 -5 399 33 72 19 129 30 127 26 -3 -4 -105 -80 -227
-169 -577 -420 -750 -570 -869 -749 -29 -44 -56 -76 -60 -72 -5 5 -63 116
-131 247 -68 132 -171 328 -229 435 -179 333 -261 501 -325 669 l-24 65 48
-45 c26 -25 73 -63 103 -86z m-553 -153 c99 -215 116 -243 184 -315 44 -46
113 -102 187 -151 128 -85 217 -167 279 -259 62 -92 86 -146 147 -329 31 -93
77 -211 102 -262 101 -204 312 -433 634 -688 369 -293 408 -327 525 -447 66
-68 167 -169 225 -223 385 -364 497 -513 585 -779 112 -340 78 -708 -98 -1052
-57 -112 -105 -178 -240 -333 -98 -112 -359 -433 -441 -540 -108 -143 -342
-260 -566 -285 l-54 -7 76 78 c107 107 271 323 313 410 96 197 90 423 -15 634
-53 105 -82 147 -214 302 -149 175 -182 220 -331 441 -220 326 -391 532 -595
713 -180 160 -330 266 -680 478 -371 224 -534 343 -739 539 l-114 110 7 73 c3
40 19 134 35 210 17 75 53 256 81 402 89 457 158 659 366 1074 71 144 128 271
150 342 l37 113 71 -112 c39 -62 76 -123 83 -137z m-2899 -168 c110 -42 203
-129 423 -397 194 -235 295 -338 407 -412 48 -32 127 -99 177 -149 77 -79 104
-99 190 -142 55 -28 114 -65 131 -84 51 -54 110 -139 142 -204 56 -111 63
-157 72 -439 7 -233 12 -287 49 -515 120 -747 193 -1074 300 -1344 18 -43 30
-80 27 -83 -2 -2 -38 38 -80 90 -84 105 -257 274 -332 325 l-49 34 55 -48
c176 -155 306 -300 415 -464 72 -109 157 -252 152 -256 -2 -2 -20 8 -41 22
-44 30 -138 74 -209 98 -78 26 -224 49 -244 37 -23 -12 -15 -15 94 -30 102
-15 203 -49 301 -101 148 -80 247 -170 440 -399 250 -297 394 -435 617 -596
191 -137 523 -310 730 -380 139 -47 193 -74 297 -148 177 -127 295 -227 401
-339 133 -140 167 -167 322 -248 132 -69 157 -85 227 -142 47 -39 138 -151
138 -170 0 -7 -24 -8 -67 -4 -162 15 -394 18 -470 7 -43 -6 -143 -30 -223 -52
-120 -34 -166 -42 -265 -46 -149 -7 -234 6 -390 58 -188 63 -399 180 -677 375
-535 377 -605 457 -703 805 -51 179 -60 202 -102 240 -68 64 -129 75 -296 53
-153 -19 -277 -15 -327 10 -49 26 -94 69 -157 156 -143 194 -222 244 -447 281
-232 38 -274 77 -380 352 -58 150 -86 204 -142 273 -86 105 -142 146 -329 241
-182 92 -258 143 -350 237 -172 175 -301 420 -336 640 -15 98 -2 194 46 346
51 158 75 267 75 346 0 122 -29 175 -124 230 -130 75 -133 149 -14 397 65 136
70 151 66 198 -6 56 -35 95 -100 132 -52 28 -82 91 -73 149 9 56 56 238 106
405 120 406 215 593 328 653 47 25 136 26 199 2z m7112 -224 c19 -40 75 -144
124 -232 179 -325 266 -515 346 -756 50 -151 75 -289 60 -340 -4 -15 -32 -68
-60 -116 -58 -97 -149 -284 -242 -494 -221 -501 -421 -823 -746 -1205 -88
-103 -124 -143 -251 -280 l-74 -80 61 115 c198 373 316 771 357 1205 61 648
65 678 145 1024 27 119 61 272 74 341 25 124 143 781 153 853 3 20 8 37 12 37
3 0 22 -33 41 -72z m-5645 -987 c129 -61 169 -99 431 -420 278 -343 525 -545
1034 -851 357 -214 547 -354 744 -548 190 -188 278 -296 486 -602 173 -253
222 -319 334 -448 117 -136 168 -205 216 -295 109 -204 118 -436 25 -622 -66
-134 -294 -410 -395 -480 -40 -28 -41 -28 -163 -22 -208 10 -452 85 -721 222
-421 215 -672 417 -995 805 -137 165 -274 310 -291 310 -12 0 -101 143 -149
238 -148 295 -238 601 -330 1127 -107 610 -131 797 -129 1030 1 132 -3 186
-16 240 -24 96 -96 239 -153 304 -47 54 -47 54 -18 47 17 -4 57 -20 90 -35z"/>
<path d="M6571 8763 c-1 -12 4 -25 9 -28 12 -7 12 2 0 30 -8 19 -9 19 -9 -2z"/>
</g>
</svg>
